<svg xmlns="http://www.w3.org/2000/svg" viewBox="0 0 106.9 106.9"><defs><style>.cls-1{fill:#fbf4f2;}.cls-1,.cls-2,.cls-3,.cls-4,.cls-5{fill-rule:evenodd;}.cls-2{fill:#f49c8c;}.cls-3{fill:#ec6c54;}.cls-4{fill:#f4b4a4;}.cls-5{fill:#f4b4ac;}</style></defs><g id="Calque_2" data-name="Calque 2"><g id="svg"><g id="svgg"><path id="path0" class="cls-1" d="M40.14,21.92l-1,.25a3,3,0,0,0-.8.26,1.66,1.66,0,0,1-.43.17,3.4,3.4,0,0,0-.83.44,4.53,4.53,0,0,1-.59.37,13.29,13.29,0,0,0-2.08,2.25,1.51,1.51,0,0,1-.2.32,2.84,2.84,0,0,0-.45.75l-.21.42c-.1.18-.54,1.08-.86,1.78a2.21,2.21,0,0,0-.2.66.39.39,0,0,1-.1.28,1.92,1.92,0,0,0-.23.62,3,3,0,0,1-.77,1.42,3.1,3.1,0,0,0-.37.53,1.76,1.76,0,0,1-.23.38,23.21,23.21,0,0,0-1.3,2.59,2.26,2.26,0,0,1-.21.56,2.35,2.35,0,0,0-.21.59,1.62,1.62,0,0,1-.16.47,1.34,1.34,0,0,0-.16.51,3.86,3.86,0,0,1-.22.81,4.26,4.26,0,0,0-.21.83,1.3,1.3,0,0,1-.15.49,3.48,3.48,0,0,0-.21.94,10.35,10.35,0,0,1-.23,1.16,3.93,3.93,0,0,0-.16,1,6.19,6.19,0,0,1-.15,1.12A17.12,17.12,0,0,0,27.16,46c-.07.82-.15,1.52-.17,1.57-.53.86-.53,16.71,0,20.78.08.65.2,1.56.27,2a21.23,21.23,0,0,0,.48,2.78c.08.3.17.75.21,1a4.8,4.8,0,0,0,.21.85c.08.21.25.74.38,1.18.23.74.53,1.57.75,2.09a22.32,22.32,0,0,0,1,2c.15.23.3.5.34.58a.64.64,0,0,0,.21.25.29.29,0,0,1,.14.21,11,11,0,0,0,1.66,1.79,8.36,8.36,0,0,0,1.55,1A12.86,12.86,0,0,0,36.4,85c.24,0,.57.15.75.21,1.37.47,7.12.47,9,0,.23-.06.71-.17,1.07-.24a26,26,0,0,0,3.63-.87c.77-.23,1.68-.55,2.25-.79a4.6,4.6,0,0,1,.66-.2.89.89,0,0,0,.41-.17.29.29,0,0,1,.24-.1,2.25,2.25,0,0,0,.6-.2A7.87,7.87,0,0,1,56.7,82a12.88,12.88,0,0,0,1.9-.53,3.5,3.5,0,0,1,.59-.21A14.84,14.84,0,0,0,61,80.64a1.81,1.81,0,0,1,.47-.14,1.22,1.22,0,0,0,.41-.16L62.7,80l1-.43a2.4,2.4,0,0,1,.54-.21,7.3,7.3,0,0,0,1-.47l1.91-1c.56-.28,1.24-.66,1.51-.83a8.73,8.73,0,0,1,1.17-.73,1.17,1.17,0,0,0,.35-.26.27.27,0,0,1,.19-.14,10.16,10.16,0,0,0,1.72-1.17c.27-.21.6-.45.73-.54l.36-.27,1-.9a34.94,34.94,0,0,0,3.17-3.17l.59-.7c.14-.16.32-.39.41-.52s.26-.37.38-.52a16.62,16.62,0,0,0,1.05-1.51c0-.09.19-.35.33-.59s.79-1.51,1.29-2.56A9.58,9.58,0,0,0,82,61.74c.06-.24.17-.64.26-.9a2.85,2.85,0,0,0,.17-.86,3.8,3.8,0,0,1,.16-.91,12.32,12.32,0,0,0,0-4,4.5,4.5,0,0,1-.16-1,2.12,2.12,0,0,0-.12-.69c-.06-.17-.18-.59-.26-.94a10,10,0,0,0-.64-2,1.22,1.22,0,0,1-.16-.41,20.81,20.81,0,0,0-1.4-2.84.28.28,0,0,1-.09-.21,5.16,5.16,0,0,0-.59-1c-.32-.48-.59-.89-.59-.92s-1.49-2.1-1.64-2.24-.34-.37-.6-.69a37.44,37.44,0,0,0-3.16-3.36c-1.06-1.06-2.36-2.39-2.9-2.95a43.18,43.18,0,0,0-5.17-4.62c-.44-.33-.88-.68-1-.77a.68.68,0,0,0-.28-.17.14.14,0,0,1-.13-.1,14.87,14.87,0,0,0-1.43-1c-.76-.5-1.44-.95-1.5-1a1.64,1.64,0,0,0-.26-.16c-.09,0-.36-.2-.59-.34l-.7-.41c-.14-.07-.42-.23-.6-.35s-3.13-1.61-4.42-2.21l-.77-.37a1.2,1.2,0,0,0-.42-.14,2.8,2.8,0,0,1-.57-.21,2,2,0,0,0-.6-.21,1,1,0,0,1-.37-.16,1,1,0,0,0-.42-.17,2.25,2.25,0,0,1-.65-.21,1.89,1.89,0,0,0-.69-.21,1.68,1.68,0,0,1-.55-.15,3.39,3.39,0,0,0-.8-.23,4.52,4.52,0,0,1-.88-.22,2.18,2.18,0,0,0-.75-.15,4.59,4.59,0,0,1-1-.17,28.73,28.73,0,0,0-5.61-.15M45.65,23a3.22,3.22,0,0,0,.83.17,2.35,2.35,0,0,1,.74.16,5,5,0,0,0,.93.25,8.38,8.38,0,0,1,.86.21c.18.07.73.24,1.23.39a7.24,7.24,0,0,1,1,.37,1.52,1.52,0,0,0,.44.16,4.34,4.34,0,0,1,.64.21l.69.31c1.79.79,3.14,1.44,4.44,2.16a12.46,12.46,0,0,1,1.76,1,4.24,4.24,0,0,0,.8.49,6.84,6.84,0,0,1,2,1.51c0,.08-.41,0-.44,0A7.45,7.45,0,0,0,60,29.61l-1.22-.55-1.13-.51-.8-.36a3.89,3.89,0,0,0-.69-.25,3.41,3.41,0,0,1-.59-.2,10.81,10.81,0,0,0-1.07-.37c-.44-.14-.92-.29-1.07-.35a16.11,16.11,0,0,0-2-.51l-1-.23a20.22,20.22,0,0,0-7.49.06,8.84,8.84,0,0,0-3,1.71c-.26.23-.42.28-1,.28a13.69,13.69,0,0,0-4.52,1c-.6.31-.78-.16-.36-1l.44-.88a1.89,1.89,0,0,1,.32-.51s.13-.15.2-.32.18-.32.23-.32.09-.05.09-.12a7.69,7.69,0,0,1,2.47-2.41c2-.94,2.39-1,5.23-.95a10.06,10.06,0,0,1,2.57.21m4.06,4.13,1.3.25a5,5,0,0,1,1,.27,1.24,1.24,0,0,0,.46.11,7.79,7.79,0,0,1,2,.66.67.67,0,0,0,.32.1,2,2,0,0,1,.65.21A3,3,0,0,0,56,29a3.63,3.63,0,0,1,.64.22l.73.31c.88.36,2.86,1.33,4,1.93l1.39.75a5.09,5.09,0,0,1,.69.42.56.56,0,0,0,.22.14,18.12,18.12,0,0,1,1.73,1.08l1.18.79a6.83,6.83,0,0,1,.67.52,1,1,0,0,0,.36.25s.17.1.28.22a.71.71,0,0,0,.31.22,1.81,1.81,0,0,1,.54.38l1.23,1a12.41,12.41,0,0,1,2.78,3,1.45,1.45,0,0,0,.24.33,6.83,6.83,0,0,1,.83,1.1s.27.45.59.94a5.86,5.86,0,0,1,.59,1,.42.42,0,0,0,.15.25.83.83,0,0,1,.22.44c0,.18.12.32.17.32s.13.13.17.29a4.78,4.78,0,0,0,.39.88,7.1,7.1,0,0,1,.4.91c0,.18.17.56.27.86s.22.68.28.85c.1.33.36,1.62.52,2.57a23.93,23.93,0,0,1,0,4.06A10.42,10.42,0,0,1,77,57.34a.5.5,0,0,0-.11.31,5.9,5.9,0,0,1-1.22,2.51l-.24.11-.13-1.79A21.73,21.73,0,0,0,75,56.27c-.06-.23-.15-.65-.2-.94a9.75,9.75,0,0,0-.65-2,2.54,2.54,0,0,1-.2-.55,1.53,1.53,0,0,0-.15-.42c-.09-.17-.37-.76-.64-1.32s-.8-1.54-1.19-2.18a13.17,13.17,0,0,1-.7-1.26.09.09,0,0,0-.09-.09,3.23,3.23,0,0,1-.61-.77c-.29-.43-.55-.8-.59-.83s-.37-.43-.73-.89a21.48,21.48,0,0,0-2.21-2.44,44.7,44.7,0,0,0-3.25-3.08c-.33-.26-.68-.56-.8-.67a15.74,15.74,0,0,0-1.58-1.23,4.67,4.67,0,0,1-.83-.69s-.06-.09-.14-.09a.62.62,0,0,1-.34-.21.6.6,0,0,0-.28-.21,5.68,5.68,0,0,1-.79-.51,23.73,23.73,0,0,0-2.47-1.57c-.7-.41-1.29-.77-1.32-.8s-4-2-4.6-2.25l-.91-.38a7.31,7.31,0,0,0-.72-.27,1.07,1.07,0,0,1-.46-.22.29.29,0,0,0-.22-.1,1.58,1.58,0,0,1-.51-.15c-.18-.08-.67-.24-1.08-.37l-1.28-.37a11.88,11.88,0,0,0-1.2-.27,4.23,4.23,0,0,1-.86-.21,4.5,4.5,0,0,0-.91-.16c-1.48-.13-1.11-1,.57-1.31a1.68,1.68,0,0,0,.49-.17c.37-.29,5-.35,6.13-.08M38.35,29.49c.15.09,0,.44-.46,1.24a3.31,3.31,0,0,0-.47,1,.15.15,0,0,1-.08.12,2.57,2.57,0,0,0-.34.68c-.14.35-.35.84-.46,1.09a2.66,2.66,0,0,0-.19.63,1.42,1.42,0,0,1-.15.46,11,11,0,0,0-.59,2.15c0,.27-.17.77-.26,1.12a4.7,4.7,0,0,0-.18,1,2.33,2.33,0,0,1-.11.65,27.53,27.53,0,0,0-.54,3.72c-.06.59-.18,1.69-.26,2.46a134.23,134.23,0,0,0,0,19.45c.09.65.21,1.59.27,2.09A19.93,19.93,0,0,0,35,70.23a7.27,7.27,0,0,1,.21.94,10.65,10.65,0,0,0,.55,2.14,4.21,4.21,0,0,1,.22.78,1,1,0,0,0,.16.48.35.35,0,0,1,.09.26c0,1.12-1.93-1.49-2.85-3.85A21.71,21.71,0,0,1,32,66.28c-.08-.44-.2-1-.26-1.23a6.32,6.32,0,0,1-.11-.86A7.28,7.28,0,0,0,31.47,63c-.09-.41-.2-1.33-.26-2s-.15-1.67-.21-2.14c-.16-1.12-.16-12.74,0-14.22.06-.59.16-1.81.21-2.72a20.16,20.16,0,0,1,.21-2,9.08,9.08,0,0,0,.18-1.33,14.3,14.3,0,0,1,.2-1.62c.08-.35.18-1,.22-1.33a8.14,8.14,0,0,1,.21-1.18c.07-.26.19-.74.26-1.07.3-1.47.32-1.52.76-2a5.51,5.51,0,0,1,1.65-1.14l.82-.4a1.47,1.47,0,0,1,.54-.15,3.61,3.61,0,0,0,.73-.15,2.32,2.32,0,0,1,1.36-.07m4,.16a11.59,11.59,0,0,1,1.34.27,20.49,20.49,0,0,0,2,.54,9.7,9.7,0,0,1,1.8.6,1.36,1.36,0,0,0,.47.16,2.25,2.25,0,0,1,.6.2c.25.11.71.31,1,.43A59.84,59.84,0,0,1,55,34.5a1.3,1.3,0,0,0,.29.16,10.64,10.64,0,0,1,1,.61,8.21,8.21,0,0,0,.86.54,5.39,5.39,0,0,1,1,.67.17.17,0,0,0,.14.08,1.39,1.39,0,0,1,.45.27,13.16,13.16,0,0,0,1.32.94,3.62,3.62,0,0,1,.78.62s.07.09.15.09a.3.3,0,0,1,.24.15,1,1,0,0,0,.26.24,4.52,4.52,0,0,1,.62.47l.64.53a38.49,38.49,0,0,1,3,2.78,33.39,33.39,0,0,1,2.84,3.1l.36.43a31.82,31.82,0,0,1,2.15,3.1,15,15,0,0,1,1.06,1.93,13.12,13.12,0,0,1,1.28,3.06,1,1,0,0,0,.16.4,1.09,1.09,0,0,1,.16.57,2.44,2.44,0,0,0,.17.75,18.85,18.85,0,0,1,0,7.14,2.68,2.68,0,0,1-.67,1.1l-.82,1A24.75,24.75,0,0,1,69.55,68c-.28.24-.58.5-.67.59A22.8,22.8,0,0,1,67,70a2.31,2.31,0,0,0-.49.38,1.91,1.91,0,0,1-.56.37c-.08,0-.14,0-.14.1s-.18.21-.91.59c-.17.09-.61.36-1,.59a12,12,0,0,1-1.23.69l-.75.38a37.29,37.29,0,0,1-3.88,1.82.83.83,0,0,0-.35.15.71.71,0,0,1-.35.16,3.07,3.07,0,0,0-.59.21,11.25,11.25,0,0,1-1.62.59l-.69.24a12.15,12.15,0,0,1-1.84.51A4.43,4.43,0,0,0,52,77a17.71,17.71,0,0,1-2.31.5l-1.55.27a36.88,36.88,0,0,1-6.9,0c-2-.45-2.84-.82-3.2-1.39a13.84,13.84,0,0,1-1-2.47,3.53,3.53,0,0,0-.22-.72,3.69,3.69,0,0,1-.21-.81.63.63,0,0,0-.1-.35,10.13,10.13,0,0,1-.55-2.29c-.06-.32-.18-1-.26-1.5s-.21-1.39-.26-2-.15-1.51-.21-2a146.32,146.32,0,0,1,0-16.89c0-.58.15-1.71.2-2.51s.18-1.85.27-2.35.18-1.23.21-1.62a6.23,6.23,0,0,1,.17-1c0-.16.14-.59.2-.94a6.78,6.78,0,0,1,.2-1c.1-.29.3-1.06.56-2.2a19.4,19.4,0,0,1,.91-2.61,14.46,14.46,0,0,1,1.2-2.34c1-1.51.87-1.47,3.23-1.1M30.86,36.11c0,.22-.13,1-.22,1.81s-.21,1.67-.26,2A19.67,19.67,0,0,0,30.21,42,21.42,21.42,0,0,1,30,44.21c-.19.93-.2,14,0,14.85a16.33,16.33,0,0,1,.19,1.87,13.8,13.8,0,0,0,.16,1.71c.07.27.18,1,.26,1.61s.2,1.36.26,1.65.22,1,.34,1.55.29,1.19.37,1.39.17.5.2.65A3.39,3.39,0,0,0,32,70a4.39,4.39,0,0,1,.19.58,11.89,11.89,0,0,0,1.14,2.62c.14.24.3.5.34.59A10.32,10.32,0,0,0,37,77.28a3.92,3.92,0,0,1,.89,1,12,12,0,0,0,1.9,2.24l.35.27.32.27a4.91,4.91,0,0,0,1.16.66,6.21,6.21,0,0,0,1.77.73,1.31,1.31,0,0,1,.45.12,17.53,17.53,0,0,0,3.59.57c1.68.16,2,.3,1.28.48l-1,.28a9.11,9.11,0,0,1-1.23.26c-.38.05-.89.14-1.12.2-1.48.37-7.15.33-7.91-.06a2.92,2.92,0,0,0-.65-.18,10.5,10.5,0,0,1-3-1.33A10.79,10.79,0,0,1,30.72,79,8.57,8.57,0,0,1,30,77.42a1.65,1.65,0,0,0-.15-.42,5.06,5.06,0,0,1-.49-1.26,3.36,3.36,0,0,0-.18-.66,20,20,0,0,1-.58-2.65c-.06-.36-.18-1-.26-1.34a13,13,0,0,1-.21-1.47A8,8,0,0,0,28,68.5a18.76,18.76,0,0,1-.21-2.17c-.05-1-.14-2.46-.2-3.26-.14-1.83-.14-6.69,0-8.92.06-.95.15-2.73.21-4a25,25,0,0,1,.21-2.6,9.52,9.52,0,0,0,.17-1.39c0-.57.14-1.32.21-1.68a11.19,11.19,0,0,0,.2-1.33,11.15,11.15,0,0,1,.22-1.39c.08-.38.21-1,.27-1.28a17.17,17.17,0,0,1,.56-2.3,6.37,6.37,0,0,1,.3-.86,1.38,1.38,0,0,0,.15-.43c.26-1.13.93-1.84.78-.82M77.08,45a.16.16,0,0,0,.15.16c.09,0,.24.15.33.32s.2.32.25.32.13.09.16.19a7.2,7.2,0,0,0,.44.78,3,3,0,0,1,.37.72.12.12,0,0,0,.11.13,17.7,17.7,0,0,1,1.39,2.79,1.36,1.36,0,0,0,.15.4,9.56,9.56,0,0,1,.38,1.09c.13.44.29.94.35,1.12a6.79,6.79,0,0,1,.21,1c0,.38.15.91.21,1.17a10.81,10.81,0,0,1,.1,3.15c-.06.36-.17,1-.23,1.5A5.28,5.28,0,0,1,81.18,61a1.41,1.41,0,0,0-.15.49,1.24,1.24,0,0,1-.14.46,3,3,0,0,0-.22.59,16.5,16.5,0,0,1-1.8,3.56.15.15,0,0,0-.08.13,5.26,5.26,0,0,1-.67,1.1l-.34.43c-.11.12-.39.48-.62.8a14.49,14.49,0,0,1-1,1.14l-1,1a22.62,22.62,0,0,1-2.39,2.16c-.44.35-.88.72-1,.82a5.74,5.74,0,0,1-.8.6c-.34.22-.64.43-.67.46a5.07,5.07,0,0,1-.79.54,5.88,5.88,0,0,0-.67.4,13.7,13.7,0,0,1-1.64,1,5.23,5.23,0,0,0-.72.43,1.18,1.18,0,0,1-.37.2,5.82,5.82,0,0,0-.75.38,2.44,2.44,0,0,1-.68.31,1.05,1.05,0,0,0-.42.17c-.46.3-.66.1-.28-.28a1.39,1.39,0,0,1,.41-.32,2.17,2.17,0,0,0,.53-.4c.25-.22.58-.49.75-.61a31.23,31.23,0,0,0,6.19-6.61c.28-.42.61-.94.75-1.14a26.36,26.36,0,0,0,1.75-3.66,7.85,7.85,0,0,1,1.14-2.33,14.53,14.53,0,0,0,1.54-2.89.49.49,0,0,1,.16-.32.5.5,0,0,0,.16-.3,1.33,1.33,0,0,1,.17-.5,9.23,9.23,0,0,0,.63-2.08c.08-.38.2-.87.26-1.07a32,32,0,0,0,0-5.27c-.06-.22-.18-.75-.26-1.18A9.56,9.56,0,0,0,77.6,47a.49.49,0,0,1-.1-.27,1.76,1.76,0,0,0-.21-.57,1.82,1.82,0,0,1-.21-.71.55.55,0,0,0-.11-.38.23.23,0,0,1-.11-.17.11.11,0,0,1,.11-.1c.06,0,.11.07.11.16M71.74,68.23a3.25,3.25,0,0,1-.48.82.41.41,0,0,0-.17.24.75.75,0,0,1-.17.28,13.16,13.16,0,0,0-1,1.35,34.54,34.54,0,0,1-4.38,4.34s-.11.06-.14.14a2,2,0,0,1-.52.45,3.25,3.25,0,0,0-.55.45.27.27,0,0,1-.19.13,3.32,3.32,0,0,0-.66.43,12.92,12.92,0,0,1-1.09.8,5.65,5.65,0,0,1-.59.35,7.8,7.8,0,0,0-1.17.72,16.23,16.23,0,0,1-1.45.8,10.13,10.13,0,0,0-1,.56.87.87,0,0,1-.34.14.93.93,0,0,0-.41.22.38.38,0,0,1-.24.15,2.23,2.23,0,0,0-.54.21,6.23,6.23,0,0,1-1.83.6,7.34,7.34,0,0,0-1,.22,3.6,3.6,0,0,1-.9.15,9,9,0,0,0-1.36.17,21.65,21.65,0,0,1-5.46,0,6.19,6.19,0,0,0-1.1-.17,1.76,1.76,0,0,1-.63-.12,4,4,0,0,0-.72-.26,7.89,7.89,0,0,1-3.43-2c-.93-.9-.64-1.1,1-.68a27.74,27.74,0,0,0,8.77-.3c.23-.06.74-.16,1.12-.22A5.73,5.73,0,0,0,52,78a7.93,7.93,0,0,1,.91-.25,15.66,15.66,0,0,0,3-.93,2.75,2.75,0,0,1,.65-.21.82.82,0,0,0,.41-.16.78.78,0,0,1,.35-.15,1.71,1.71,0,0,0,.49-.15l1-.45c.38-.16,1-.45,1.46-.65s.79-.36.82-.36a4.5,4.5,0,0,0,.7-.37,3.81,3.81,0,0,1,.74-.37A8,8,0,0,0,64,73.2a5.21,5.21,0,0,1,.55-.32,38.73,38.73,0,0,0,4.11-2.79,7.19,7.19,0,0,1,.59-.48,17,17,0,0,0,1.36-1.16c1.39-1.28,1.63-1.33,1.11-.22"/><path id="path1" class="cls-2" d="M.29.35,0,.47V53.68c0,53.19,0,53.22.21,53.22s.22,0,.19-53.19S.37.53.59.47s24.08,0,53.26,0,53.05,0,53.05,0-.11-.09-.24-.13C106.2.16.61.23.29.35M41,21.43a6.4,6.4,0,0,1-1,.21,4.29,4.29,0,0,0-1.05.27.64.64,0,0,1-.38.11,1.78,1.78,0,0,0-.68.22,2.33,2.33,0,0,1-.51.21,2.46,2.46,0,0,0-.88.61.29.29,0,0,1-.2.14,11.64,11.64,0,0,0-2.08,2.15,13.77,13.77,0,0,0-.74,1.21c-.09.18-.3.57-.47.86a2.41,2.41,0,0,0-.32.76.56.56,0,0,1-.17.36.47.47,0,0,0-.16.31,2.15,2.15,0,0,1-.21.6,2,2,0,0,0-.21.7,1,1,0,0,1-.16.48.78.78,0,0,0-.16.36,2.57,2.57,0,0,1-.43.65,3.61,3.61,0,0,0-.43.57,4.7,4.7,0,0,1-.38.62,2.67,2.67,0,0,0-.37.75.32.32,0,0,1-.1.25,3.72,3.72,0,0,0-.65,1.34.47.47,0,0,1-.16.32.52.52,0,0,0-.16.36,2.54,2.54,0,0,1-.21.66,1.86,1.86,0,0,0-.21.67,1.86,1.86,0,0,1-.16.55,2.92,2.92,0,0,0-.23.77,2.93,2.93,0,0,1-.22.75,1.72,1.72,0,0,0-.15.65,3.09,3.09,0,0,1-.16.78,5.08,5.08,0,0,0-.22,1.17,5.15,5.15,0,0,1-.17,1A12.31,12.31,0,0,0,27,44.54c-.09.76-.2,1.71-.26,2.12s-.1,1.18-.11,1.71a18.24,18.24,0,0,1-.16,2,22,22,0,0,0-.14,3c0,1.06,0,1.68.05,1.39.37-6.62.37-6.66.73-9.78.18-1.59.46-3.39.58-3.8a6,6,0,0,0,.17-.91,3.3,3.3,0,0,1,.22-.87,1.22,1.22,0,0,0,.15-.49,16.43,16.43,0,0,1,.7-2.43A13.79,13.79,0,0,1,30,33.89a17,17,0,0,1,1.65-2.61,2.26,2.26,0,0,0,.36-.8,18.21,18.21,0,0,1,1-2.69c1.26-2.42,1.91-3.29,3.28-4.37a6.68,6.68,0,0,1,2.61-1.36,18.81,18.81,0,0,1,9.05.29,1.31,1.31,0,0,0,.55.07c.25-.06-.89-.4-1.34-.4a1.52,1.52,0,0,1-.57-.11A22.94,22.94,0,0,0,41,21.43m8.51,1.3,1.07.36.83.31a37.18,37.18,0,0,1,4.89,2.1,50.91,50.91,0,0,1,9.91,6.38,39.42,39.42,0,0,1,4.14,3.82c.59.62,1.94,2,3,3a37.71,37.71,0,0,1,3.69,4,28.52,28.52,0,0,1,2,2.84,2,2,0,0,0,.25.4,12.77,12.77,0,0,1,1.21,2.16c.26.53.51,1,.56,1.13s.48,1.17.74,1.92c.16.44.58,2.15.82,3.36a18.46,18.46,0,0,1-.37,6.66,1.36,1.36,0,0,0-.11.43c0,.42.31-.23.38-.82a5.55,5.55,0,0,1,.23-1.08,21.29,21.29,0,0,0,0-5.35,6.44,6.44,0,0,1-.23-1.1,3.74,3.74,0,0,0-.22-.93,1.46,1.46,0,0,1-.16-.55,6.85,6.85,0,0,0-.6-1.73,1.55,1.55,0,0,1-.15-.49.9.9,0,0,0-.22-.44.9.9,0,0,1-.21-.43.44.44,0,0,0-.15-.3.86.86,0,0,1-.21-.39,4.61,4.61,0,0,0-.39-.8,5.55,5.55,0,0,1-.32-.61,5.73,5.73,0,0,0-.72-1.08.53.53,0,0,1-.13-.3A.3.3,0,0,0,79,45c-.09,0-.16-.1-.16-.16a31.17,31.17,0,0,0-2.9-3.78,32.84,32.84,0,0,0-3-3,.2.2,0,0,1-.17-.1,53.4,53.4,0,0,0-4-4.18c-1.16-1.06-1.43-1.3-2.31-2A9.75,9.75,0,0,1,65,30.65a.58.58,0,0,0-.3-.18.63.63,0,0,1-.31-.22c-.11-.11-.23-.21-.28-.21a1.44,1.44,0,0,1-.43-.32,2.87,2.87,0,0,0-.65-.44c-.16-.07-.3-.16-.3-.22s-.06-.09-.14-.09a.68.68,0,0,1-.34-.21.65.65,0,0,0-.32-.22.58.58,0,0,1-.32-.21.65.65,0,0,0-.34-.22c-.08,0-.14,0-.14-.08a2.37,2.37,0,0,0-.62-.4,4.45,4.45,0,0,1-.67-.38,5.85,5.85,0,0,0-.64-.4l-.75-.45a2.72,2.72,0,0,0-.42-.21L57.59,26a16.26,16.26,0,0,0-2.66-1.29c-.11,0-.2,0-.2-.1s-.19-.16-.42-.23-.43-.16-.43-.2-.22-.14-.48-.2a1.4,1.4,0,0,1-.54-.23c0-.06-.17-.1-.3-.1a1.76,1.76,0,0,1-.63-.22,1.75,1.75,0,0,0-.59-.21.9.9,0,0,1-.41-.15,1.83,1.83,0,0,0-.64-.23,2.15,2.15,0,0,1-.63-.23,1.15,1.15,0,0,0-.59-.13c-.31,0-.24.05.48.27m-9.89.51A6.77,6.77,0,0,0,36,25.62c-1.2,1.45-2.39,4-1.69,3.57a13.07,13.07,0,0,1,2.86-.86,7.64,7.64,0,0,1,1.38-.1c.91,0,1,0,1.39-.36,2.22-1.81,4.49-2.38,8.35-2.08l1,.08-.64-.16a13.54,13.54,0,0,0-4.07,0,7.54,7.54,0,0,1-1,.16,6.74,6.74,0,0,0-1.87.62,12.43,12.43,0,0,0-1.88,1.27c-.43.35-.46.35-1.5.35a7.08,7.08,0,0,0-1.65.17c-.32.09-.77.21-1,.26a3,3,0,0,0-.78.27c-.42.22-.72.15-.57-.13.06-.11.23-.46.39-.78s.43-.79.6-1a2.42,2.42,0,0,0,.31-.55,10.39,10.39,0,0,1,.93-1,5.83,5.83,0,0,1,2.54-1.68,9.34,9.34,0,0,1,2.35-.49l.75-.07h-.85a5.74,5.74,0,0,0-1.66.23m4.06-.14a8.93,8.93,0,0,1,1.39.2,3.52,3.52,0,0,0,.81.11,4,4,0,0,1,1,.22,4.11,4.11,0,0,0,.86.21,1.45,1.45,0,0,1,.57.16,1.45,1.45,0,0,0,.57.16,1.46,1.46,0,0,1,.55.15,2.86,2.86,0,0,0,.68.22,1.77,1.77,0,0,1,.63.23.94.94,0,0,0,.41.15,1.75,1.75,0,0,1,.59.21,1.85,1.85,0,0,0,.57.22.45.45,0,0,1,.31.16.52.52,0,0,0,.3.16,6.57,6.57,0,0,1,1.53.65,1.9,1.9,0,0,0,.56.2.25.25,0,0,1,.2.08,4.43,4.43,0,0,0,1.32.67c.09,0,.15,0,.15.09A3.38,3.38,0,0,0,58,28c.09,0,.15,0,.15.1s.16.18.35.26l.35.16H58.5c-.23,0-.35,0-.35-.14s-.16-.18-.39-.22a2,2,0,0,1-.61-.22.8.8,0,0,0-.38-.16,2.22,2.22,0,0,1-.59-.21,2.24,2.24,0,0,0-.72-.21c-.16,0-.32-.05-.35-.11A1.59,1.59,0,0,0,54.6,27a4.55,4.55,0,0,1-.79-.27,1.86,1.86,0,0,0-.57-.15,1.49,1.49,0,0,1-.52-.15,3,3,0,0,0-.84-.21,6.42,6.42,0,0,1-1-.23,3.75,3.75,0,0,0-1.05-.15l-.6,0,.59.08a6.42,6.42,0,0,1,.89.2,1.78,1.78,0,0,0,.6.12,5.33,5.33,0,0,1,1,.22c1,.3,3.37,1.05,3.62,1.16l.86.33c.35.14,1,.41,1.39.6a8.89,8.89,0,0,0,1,.42.66.66,0,0,1,.35.17.5.5,0,0,0,.35.08h.29l-.3-.13a1.08,1.08,0,0,1-.38-.24,38.46,38.46,0,0,0-5.68-3.07l-1-.44c-.74-.32-1.1-.46-1.65-.66l-1-.35c-.36-.13-.93-.29-1.92-.55l-1-.27c-.27-.07-.8-.19-1.18-.25s-.86-.16-1.07-.22A6.71,6.71,0,0,0,43.72,23h-1l1,.09m1.5,4c-2.63.18-4.29,1.19-2.41,1.46a8.86,8.86,0,0,1,1.16.24,1.88,1.88,0,0,0,.6.12,3,3,0,0,1,.77.17c.26.09.66.21.89.26a11.68,11.68,0,0,1,1.82.59c.18.07.44.17.59.21a1.09,1.09,0,0,1,.37.16,1.81,1.81,0,0,0,.41.15,7.76,7.76,0,0,1,1,.4l1.3.6a56,56,0,0,1,8.92,5.22c.18.15.8.62,1.37,1.06a45.31,45.31,0,0,1,6.17,5.68,32.49,32.49,0,0,1,2.22,2.71c.37.5.71,1,.77,1s.9,1.36,1,1.64.3.56.51.91A20,20,0,0,1,74,52.27c.13.33.27.69.33.81a10.8,10.8,0,0,1,.59,1.84,4.25,4.25,0,0,0,.21.77,19.06,19.06,0,0,1,.38,2.78c.22,1.89.39,1.71,1.42-1.44.26-.79.22-1.21,0-.48a3.36,3.36,0,0,0-.21.8,1.93,1.93,0,0,1-.22.64,2.26,2.26,0,0,0-.21.56,2.42,2.42,0,0,1-.24.59l-.24.46-.06-1.13a6.29,6.29,0,0,0-.18-1.33,4.05,4.05,0,0,1-.18-.93,4.83,4.83,0,0,0-.22-1.09,2,2,0,0,1-.16-.62,1.54,1.54,0,0,0-.16-.55,1.37,1.37,0,0,1-.16-.49,1.45,1.45,0,0,0-.22-.52,1.55,1.55,0,0,1-.21-.51,2,2,0,0,0-.21-.56,1.68,1.68,0,0,1-.22-.59A.28.28,0,0,0,73.6,51a.29.29,0,0,1-.17-.24,2.63,2.63,0,0,0-.31-.71c-.18-.29-.39-.68-.48-.85A8.58,8.58,0,0,0,71.86,48a2.72,2.72,0,0,1-.34-.61.16.16,0,0,0-.09-.14,3.28,3.28,0,0,1-.45-.57c-.49-.69-.45-.65-1-1.39a11.92,11.92,0,0,0-.81-.93,2.88,2.88,0,0,1-.3-.34c0-.41-4.37-4.54-6.63-6.26-.62-.47-1.2-.93-1.3-1a.68.68,0,0,0-.3-.16.09.09,0,0,1-.1-.09,3,3,0,0,0-1-.66.64.64,0,0,1-.27-.21.65.65,0,0,0-.34-.22c-.08,0-.14,0-.14-.09a5.27,5.27,0,0,0-1-.66c-.53-.32-1.1-.66-1.26-.77s-.43-.25-.61-.34-.46-.26-.64-.38a4,4,0,0,0-.59-.33l-.42-.21c-.09-.06-.43-.22-.75-.38s-.66-.32-.75-.37c-.24-.13-1.29-.64-1.66-.8-1.15-.5-1.42-.6-2.32-.92a5.67,5.67,0,0,1-.55-.22,9.59,9.59,0,0,0-1.83-.61,2.61,2.61,0,0,1-.64-.19,3.36,3.36,0,0,0-.79-.19,5.39,5.39,0,0,1-.94-.23,2.47,2.47,0,0,0-.79-.15c-.89,0-1.43-.39-.82-.6l.66-.23a9.17,9.17,0,0,1,3.36-.42,9.47,9.47,0,0,1,2.63.13,4.49,4.49,0,0,0,1,.15c.26,0,.37,0,.25-.06l-.9-.19a20.7,20.7,0,0,0-4.28-.17m6,.64a3.88,3.88,0,0,0,1,.21.81.81,0,0,1,.51.15,1.25,1.25,0,0,0,.63.22,1.84,1.84,0,0,1,.71.23.92.92,0,0,0,.48.16c.37,0-.34-.37-.91-.48a2.53,2.53,0,0,1-.56-.17,11,11,0,0,0-2-.48c-.3,0-.25,0,.22.16m3.73,1.12a1.11,1.11,0,0,0,.51.22,2,2,0,0,1,.61.22.8.8,0,0,0,.41.15,1.83,1.83,0,0,1,.59.22,1.73,1.73,0,0,0,.56.21.44.44,0,0,1,.27.1,4,4,0,0,0,1.34.65c.11,0,.21.05.21.11s.13.16.29.22a5.41,5.41,0,0,1,1.26.63.81.81,0,0,0,.37.16c.18,0,.32.11.32.15a2.85,2.85,0,0,0,.62.39,5.65,5.65,0,0,1,.75.45.49.49,0,0,0,.28.14.63.63,0,0,1,.33.21.65.65,0,0,0,.28.21,2.91,2.91,0,0,1,.63.38,3.21,3.21,0,0,0,.62.37.71.71,0,0,1,.29.22.66.66,0,0,0,.33.21c.08,0,.15,0,.15.09s.12.14.27.21a3,3,0,0,1,.8.58.85.85,0,0,0,.3.19.6.6,0,0,1,.28.21.71.71,0,0,0,.29.22.7.7,0,0,1,.29.18c.11.11.41.36.66.56l.57.49.52.4c.22.17.58.47.8.67a2.26,2.26,0,0,0,.48.37s.08.06.08.13a.56.56,0,0,0,.19.31c.1.1.4.47.67.83a2.84,2.84,0,0,0,.56.65s.08.07.08.15a.62.62,0,0,0,.21.33.65.65,0,0,1,.22.34.32.32,0,0,0,.13.22,1,1,0,0,1,.27.35,3.25,3.25,0,0,0,.53.85,1,1,0,0,1,.25.35c.55,1.06,1,2.1,1.11,2.29a.92.92,0,0,0,.22.36.55.55,0,0,1,.16.37.55.55,0,0,0,.15.37,1.11,1.11,0,0,1,.21.56,1.87,1.87,0,0,0,.23.66,1.06,1.06,0,0,1,.16.52,2.6,2.6,0,0,0,.15.7,5.68,5.68,0,0,1,.21.62c0,.11,0,0,0-.22a10.18,10.18,0,0,0-.48-1.92c0-.12-.2-.5-.33-.86a24.4,24.4,0,0,0-2.06-4,.72.72,0,0,1-.18-.3.45.45,0,0,0-.11-.22c-.06-.07-.53-.73-1-1.46a15.18,15.18,0,0,0-3.4-3.58l-1.12-.91a6.34,6.34,0,0,0-.53-.38,4.35,4.35,0,0,1-.59-.45,46.44,46.44,0,0,0-4.65-3,3.8,3.8,0,0,1-.65-.37c-.07-.1-4-2-4.7-2.33l-.91-.38a4.62,4.62,0,0,0-.66-.21.89.89,0,0,1-.41-.17.28.28,0,0,0-.23-.1c-.13,0-.14,0,0,.15m-18,.83a7,7,0,0,0-3,1.35c-.78.61-.92.79-1,1.41-.07.32-.17.78-.23,1a26.79,26.79,0,0,0-.53,2.89c-.06.47-.13.93-.16,1s-.39,2.79-.44,3.68l-.05.64.16-.69a17.56,17.56,0,0,0,.26-1.82c.12-1.26.28-2.44.45-3.31.06-.32.17-1,.24-1.44a5.06,5.06,0,0,1,.26-1.09,1.4,1.4,0,0,0,.13-.56c0-.6.89-1.83,1.34-1.83a.23.23,0,0,0,.19-.16.29.29,0,0,1,.27-.16,1.05,1.05,0,0,0,.47-.21,1,1,0,0,1,.45-.22,1.46,1.46,0,0,0,.47-.15c.4-.21,1.94-.35,1.94-.18S38,30,38,30a2.73,2.73,0,0,0-.44.7,4,4,0,0,1-.44.74,1.09,1.09,0,0,0-.15.42,1,1,0,0,1-.22.49.47.47,0,0,0-.16.31,2.15,2.15,0,0,1-.21.6,1.9,1.9,0,0,0-.22.65.55.55,0,0,1-.16.37.61.61,0,0,0-.16.43,3,3,0,0,1-.21.85,3.09,3.09,0,0,0-.22.86,1.49,1.49,0,0,1-.11.55,13.29,13.29,0,0,0-.53,2.54c-.06.39-.16.89-.22,1.13a13,13,0,0,0-.21,1.6c-.06.65-.17,1.6-.26,2.13a15.37,15.37,0,0,0-.15,2.3l0,1.34.08-1.3c0-.72.11-1.43.14-1.58a15.36,15.36,0,0,0,.17-1.57,34.13,34.13,0,0,1,.6-4.21c.09-.41.2-1,.26-1.28.08-.48.28-1.33.64-2.71a17.45,17.45,0,0,1,.64-2l.32-.75a19.65,19.65,0,0,1,1.11-2.22c.49-.82.37-.9-1-.7M40,29.8a15.56,15.56,0,0,0-2.58,5c-.3,1-.58,2-.72,2.67-.08.35-.2.83-.26,1.07a48.55,48.55,0,0,0-.82,5.66c0,.73,0,.74.07.22A14.66,14.66,0,0,0,36,41.87a2.59,2.59,0,0,1,.15-.91,3.76,3.76,0,0,0,.21-1.09,6,6,0,0,1,.23-1.23,2.93,2.93,0,0,0,.16-.78,1.72,1.72,0,0,1,.15-.64,2.89,2.89,0,0,0,.23-.82,2.1,2.1,0,0,1,.17-.65,2.11,2.11,0,0,0,.19-.59,9.37,9.37,0,0,1,.56-1.7,2.3,2.3,0,0,0,.15-.32l.26-.59c.11-.23.23-.5.27-.59a7.13,7.13,0,0,1,1.48-2.09,9,9,0,0,1,2.7.23,2.32,2.32,0,0,0,.71.15,1.79,1.79,0,0,1,.67.17,3,3,0,0,0,.8.23,1.88,1.88,0,0,1,.69.21,1,1,0,0,0,.49.14,2.6,2.6,0,0,1,.73.22,2.56,2.56,0,0,0,.7.21c.58,0-2.14-.88-4.32-1.38a25,25,0,0,0-3-.44,1,1,0,0,0-.38.19m8,1.73a1.32,1.32,0,0,0,.51.24,1.79,1.79,0,0,1,.6.27.47.47,0,0,0,.29.14,1.78,1.78,0,0,1,.55.21,1.72,1.72,0,0,0,.58.21.46.46,0,0,1,.3.17.53.53,0,0,0,.29.16,2,2,0,0,1,.55.2c.22.12.47.24.55.27s.5.25.91.49l1.34.72c.32.16.8.44,1.07.61a9.29,9.29,0,0,0,1.25.75c.2.09.35.2.35.25s.13.14.3.21a3.71,3.71,0,0,1,.88.53,2.85,2.85,0,0,0,.87.62c.11,0,.2.11.2.16a.1.1,0,0,0,.11.1,3.88,3.88,0,0,1,1.05.78s.09.08.17.08a.2.2,0,0,1,.18.09,7.58,7.58,0,0,0,.95.81c1.88,1.49,6,5.49,6,5.84a.14.14,0,0,0,.1.12,6.34,6.34,0,0,1,1.08,1.36c0,.07,0,.12.09.12a3.72,3.72,0,0,1,.62.77c.28.43.58.84.65.92a.48.48,0,0,1,.13.24,3.24,3.24,0,0,0,.36.61,3.94,3.94,0,0,1,.44.75c0,.13.12.23.17.23s.12.15.16.32a.83.83,0,0,0,.22.44.46.46,0,0,1,.15.28,1.27,1.27,0,0,0,.15.44,8.43,8.43,0,0,1,.6,1.36,3.34,3.34,0,0,0,.21.53,2,2,0,0,1,.21.68,1.71,1.71,0,0,0,.15.53,4,4,0,0,1,.23.91c.09.75.36,1.57.37,1.14a19.5,19.5,0,0,0-1.18-4.25c-.11-.25-.3-.68-.43-1s-.35-.75-.5-1l-.44-.86c-.1-.17-.19-.34-.22-.37a5.23,5.23,0,0,1-.65-1.06s0-.12-.08-.13a3.19,3.19,0,0,1-.39-.52,41.16,41.16,0,0,0-6.42-7.11c-1.38-1.21-1.49-1.3-2.2-1.84-.33-.24-.67-.51-.75-.59s-.61-.46-1.17-.84-1.07-.75-1.15-.82a18.41,18.41,0,0,0-1.78-1.13l-.81-.51a11.88,11.88,0,0,0-1.12-.63,3.78,3.78,0,0,1-.59-.32,31.67,31.67,0,0,0-2.94-1.49l-.71-.33c-.09,0-.57-.25-1.07-.44a7.45,7.45,0,0,1-1-.43c-.14-.13-.41-.11-.33,0m-17.7,5.08a2,2,0,0,0-.15.48,1.83,1.83,0,0,1-.16.49,32.19,32.19,0,0,0-1.34,6c-.09.61-.2,1.35-.26,1.63a6.09,6.09,0,0,0-.09,1.18c0,.48,0,.54,0,.23s.12-.77.2-1.2a7.93,7.93,0,0,0,.16-1.34A4.78,4.78,0,0,1,28.91,43a7.78,7.78,0,0,0,.23-1.28,3.17,3.17,0,0,1,.16-.86,3.58,3.58,0,0,0,.2-.85,5.25,5.25,0,0,1,.21-.9,3.09,3.09,0,0,0,.17-.69c.05-.31.12-.48.17-.42a27.92,27.92,0,0,1-.21,4.41,121,121,0,0,0-.35,12.72c.07.91.17,2.55.22,3.64A15.18,15.18,0,0,0,29.93,61c.12.3.12.14-.12-2.62-.15-1.82-.16-11,0-13.41.2-3.13.45-5.93.55-6.31s.13-1.59,0-1.18l-.09.27V37.5c0-.15,0-.3.11-.32s.1-.18.08-.36-.07-.27-.1-.21m1,5.94c0,.38-.09,1.56-.18,2.62-.22,2.67-.22,10.93,0,13.21.09.9.18,1.91.19,2.23s0,.09.06-.53-.05-1.92-.14-2.89a90.61,90.61,0,0,1,0-10.69c.09-1.26.15-2.83.13-3.47s0-.9-.06-.48M35.47,46c0,.56-.13,1.54-.2,2.19-.18,1.72-.17,13.87,0,15.34.07.62.17,1.43.21,1.82l.08.69V65.1a13,13,0,0,0-.15-1.92,147.32,147.32,0,0,1,0-14.86A20.67,20.67,0,0,0,35.58,46l0-1-.07,1m42,.13a1.59,1.59,0,0,0,.17.56,3.52,3.52,0,0,1,.26.69,19.48,19.48,0,0,1,.75,3.48l.07.75,0-.82a4.47,4.47,0,0,0-.2-1.5,5,5,0,0,1-.21-1,1.07,1.07,0,0,0-.15-.53c-.16-.24-.31-1-.19-1s.14.13.21.29a4.19,4.19,0,0,0,.34.61,7.16,7.16,0,0,1,.36.66,1.49,1.49,0,0,0,.27.41.33.33,0,0,1,.12.27.54.54,0,0,0,.16.35,1.47,1.47,0,0,1,.23.47,2,2,0,0,0,.21.51.88.88,0,0,1,.15.38,1.26,1.26,0,0,0,.16.46,3.29,3.29,0,0,1,.22.69,2.27,2.27,0,0,0,.22.64,1,1,0,0,1,.15.43,5,5,0,0,0,.21.88c.18.58.21.63.17.27a7.82,7.82,0,0,0-.49-1.9.83.83,0,0,1-.11-.35,3.35,3.35,0,0,0-.22-.72,16.21,16.21,0,0,0-1.2-2.65c-.58-1.09-.68-1.26-1.09-1.92s-.59-.79-.59-.4M28.14,48A9.89,9.89,0,0,0,28,49.34v.53l.15-.59a5.9,5.9,0,0,0,.12-1.39l0-.8-.14.86m5.56,1.71c-.19,2.11-.17,11.16,0,12.61l.14,1.07,0-1.18c-.15-3.83-.17-8.83,0-10.79.17-2.7.11-3.85-.08-1.71m-5.87,3c-.18,5.56,0,14.15.28,15.31a11.55,11.55,0,0,1,.22,1.44c.06.59.18,1.41.26,1.82l.15.75v-.57a5.37,5.37,0,0,0-.15-1.18,14.58,14.58,0,0,1-.26-1.89,8.52,8.52,0,0,0-.24-1.6c-.1-.25-.13-2.2-.13-8.58,0-4.54,0-8.26,0-8.26s-.06,1.24-.11,2.76m49.29-2.17c0,.35.1,1,.16,1.51a6.93,6.93,0,0,1,0,1.82c-.06.52-.13,1.21-.15,1.53l0,.59.17-.64a15.52,15.52,0,0,0,0-4.81l-.17-.64,0,.64M78.81,53c0,.85,0,1.26.08,1.07a7.2,7.2,0,0,0,0-2.14c0-.2-.08.22-.08,1.07m-.11,2a5.62,5.62,0,0,1-.19,1.16c-.23.77-.14,1.07.1.32a3.78,3.78,0,0,0,.15-1.33c0-.71,0-.72-.06-.15m2.58,2a26.21,26.21,0,0,1-.12,2.89c-.07.24-.18.65-.24.91a4.58,4.58,0,0,1-.28.76,1.41,1.41,0,0,0-.15.49,1.93,1.93,0,0,1-.21.62,2.59,2.59,0,0,0-.21.56,2.07,2.07,0,0,1-.21.54,1.73,1.73,0,0,0-.22.53c0,.07,0,.13-.1.13s-.15.14-.22.3a7.85,7.85,0,0,1-.83,1.45,3,3,0,0,0-.35.61.09.09,0,0,1-.09.1c-.06,0-.14.1-.17.22a1.2,1.2,0,0,1-.22.36c-.08.08-.45.53-.81,1s-.82,1-1,1.19a2.14,2.14,0,0,0-.36.39,14.23,14.23,0,0,1-1.35,1.34,1.84,1.84,0,0,0-.39.36,7.19,7.19,0,0,1-.77.66c-.45.34-.93.74-1.25,1a.75.75,0,0,1-.28.19.66.66,0,0,0-.29.21.59.59,0,0,1-.33.22.29.29,0,0,0-.22.13,7.61,7.61,0,0,1-1.42,1,13.1,13.1,0,0,1-1.23.74c-.18.09-.52.28-.75.42s-.5.3-.59.34a4.06,4.06,0,0,0-.46.28c-.21.15-.34.18-.41.1s0-.13.11-.18.22-.12.22-.17.08-.14.18-.17a4.29,4.29,0,0,0,.74-.61c.3-.3,1-.9,1.42-1.33a4.25,4.25,0,0,0,.87-.94.16.16,0,0,1,.16-.15c.09,0,.16,0,.16-.08A1.75,1.75,0,0,1,70,72.9,23.64,23.64,0,0,0,73.38,68a1.7,1.7,0,0,1,.26-.4.63.63,0,0,0,.17-.37.92.92,0,0,1,.23-.44.51.51,0,0,0,.15-.33,1.61,1.61,0,0,1,.21-.55,1.38,1.38,0,0,0,.22-.54.89.89,0,0,1,.15-.42,2.32,2.32,0,0,0,.21-.63,1,1,0,0,1,.15-.43,2.59,2.59,0,0,0,.56-.83.52.52,0,0,1,.13-.24,4.25,4.25,0,0,0,.66-1,1,1,0,0,1,.23-.36.48.48,0,0,0,.15-.31.45.45,0,0,1,.16-.32,1,1,0,0,0,.22-.43,4.54,4.54,0,0,1,.37-.91,5,5,0,0,0,.38-.94,1.75,1.75,0,0,1,.22-.55,1.14,1.14,0,0,0,.14-.59c0-.34,0-.3-.22.32-.12.38-.29.84-.36,1s-.23.52-.32.75A19.36,19.36,0,0,1,76,62.24a4.45,4.45,0,0,0-.35.56,4.26,4.26,0,0,1-.34.54,8.09,8.09,0,0,0-.64,1.37,14.83,14.83,0,0,1-.79,1.92,1.43,1.43,0,0,0-.16.42A25.64,25.64,0,0,1,72,70a31.74,31.74,0,0,1-6.35,6.71c-1,.8-.87,1.09.23.45l1-.58c.63-.33,2-1.15,2.11-1.23a7.51,7.51,0,0,1,.86-.59,15.16,15.16,0,0,0,1.6-1.11c.2-.17.73-.59,1.17-.93a41.25,41.25,0,0,0,4.6-4.65A21.36,21.36,0,0,0,79,65.53a.5.5,0,0,1,.13-.23,16.19,16.19,0,0,0,1.27-2.6c.13-.36.27-.74.32-.86a14.19,14.19,0,0,0,.73-6.05l-.16-1.32v2.45m-55,1.72c0,1.82,0,2.58,0,1.69s0-2.39,0-3.32,0-.2,0,1.63M74,59.6c0,1.17,0,1.67,0,1.1s0-1.53,0-2.14,0-.14,0,1m-42.58,2a2.8,2.8,0,0,0,.09.75,8.78,8.78,0,0,1,.21,1.22c.05.5.16,1.19.23,1.55a26.55,26.55,0,0,0,1.12,4.52,1.78,1.78,0,0,1,.16.46,1.51,1.51,0,0,0,.15.45c.08.19.27.63.43,1,.6,1.37,1.66,3.05,1.92,3.05s.07-.54-.09-1.05c-.27-.89-.47-1.66-.69-2.69a25.6,25.6,0,0,1-.65-3.75,9.1,9.1,0,0,0-.17-1.3c0-.1-.1-.7-.15-1.33l-.08-1.16v1.17A11,11,0,0,0,34,66.17c.06.27.16,1,.22,1.55a11.11,11.11,0,0,0,.25,1.55,7.92,7.92,0,0,1,.22,1.1,2.07,2.07,0,0,0,.15.66,1.68,1.68,0,0,1,.17.67,4.77,4.77,0,0,0,.21.94c.2.45.31,1.34.17,1.34a.11.11,0,0,1-.11-.1.41.41,0,0,0-.14-.24,11.51,11.51,0,0,1-1-1.81,1.88,1.88,0,0,0-.21-.5,1.85,1.85,0,0,1-.22-.57.45.45,0,0,0-.16-.31.6.6,0,0,1-.16-.36,2.2,2.2,0,0,0-.21-.66,2.19,2.19,0,0,1-.21-.75,1.07,1.07,0,0,0-.15-.53,2.6,2.6,0,0,1-.22-.86,4.53,4.53,0,0,0-.18-.83,5.2,5.2,0,0,1-.21-1.11,4.5,4.5,0,0,0-.2-1,5.2,5.2,0,0,1-.16-1.08,10,10,0,0,0-.22-1.49l-.15-.54v.44m-1.34.9c0,1.18.35,2.82.36,1.92a4.72,4.72,0,0,0-.11-.85c-.06-.27-.16-.89-.21-1.39-.08-.89-.09-.88,0,.32m43.7-.42a5.92,5.92,0,0,0-.2.78A2.46,2.46,0,0,1,73,64l-.85,1a32.2,32.2,0,0,1-4.31,4.06L66.59,70a8.08,8.08,0,0,1-.79.56,5.41,5.41,0,0,0-.56.35,8.16,8.16,0,0,1-1.34.79c-.1,0-.19.1-.19.15a6.18,6.18,0,0,1-1.11.63,6.4,6.4,0,0,0-1.18.65.36.36,0,0,1-.27.11.64.64,0,0,0-.36.15,1,1,0,0,1-.43.23.78.78,0,0,0-.4.22.51.51,0,0,1-.35.15,1.27,1.27,0,0,0-.55.21,1.18,1.18,0,0,1-.49.21.49.49,0,0,0-.31.16.48.48,0,0,1-.34.16,6.1,6.1,0,0,0-1.51.59,1.4,1.4,0,0,1-.51.16,1.78,1.78,0,0,0-.6.22,2,2,0,0,1-.66.21,1.42,1.42,0,0,0-.53.15,4.63,4.63,0,0,1-.9.28c-.54.1-.94.32-.61.32a13.16,13.16,0,0,0,1.55-.44L55,76a22.82,22.82,0,0,0,2.24-.81c2.33-1,2.85-1.18,3-1.27l.75-.37.74-.38c.09-.06.47-.25.85-.43A12.44,12.44,0,0,0,63.68,72a2.92,2.92,0,0,1,.51-.31,1.38,1.38,0,0,0,.36-.2l1.19-.81a26.33,26.33,0,0,0,2.94-2.14L69.4,68a29.68,29.68,0,0,0,2.81-2.79c.24-.29.55-.66.7-.81a3.28,3.28,0,0,0,.9-1.57c.21-.72.19-1.26,0-.66m8.28,0c-1,3.9-5.83,10.06-10,12.85l-1,.71c-.42.3-1,.67-1.23.83s-.73.44-1,.63-1.11.64-1.82,1l-1.44.75-.64.31-1.32.6a7.43,7.43,0,0,1-1,.38.92.92,0,0,0-.34.15,14,14,0,0,1-1.71.65c-.82.27-1.58.53-1.7.59a4.51,4.51,0,0,1-.64.2,13.22,13.22,0,0,0-3,1,.32.32,0,0,1-.24.1,2.18,2.18,0,0,0-.61.21,2.4,2.4,0,0,1-.53.21,16.43,16.43,0,0,0-1.61.6,5,5,0,0,1-.69.21,2.36,2.36,0,0,0-.53.17,31.65,31.65,0,0,1-4,1c-3.56.74-7.74.81-10,.16a11.4,11.4,0,0,1-4.43-2c-1.08-.87-3.19-3.71-3.22-4.32a2.2,2.2,0,0,0-.21-.51,2.74,2.74,0,0,1-.21-.61.33.33,0,0,0-.11-.25,1,1,0,0,1-.2-.4l-.1-.34v.34a.66.66,0,0,0,.09.4,1,1,0,0,1,.22.46A10.56,10.56,0,0,0,30,80.28c.05,0,.09.09.09.2a.69.69,0,0,0,.21.39.65.65,0,0,1,.22.34.25.25,0,0,0,.16.21.22.22,0,0,1,.16.17,6.42,6.42,0,0,0,1.51,1.67c.93.76,1.09.87,1.24.87a.12.12,0,0,1,.13.1,3.55,3.55,0,0,0,1.38.65.76.76,0,0,1,.38.16,2,2,0,0,0,.69.22,2.11,2.11,0,0,1,.62.17c.77.61,8.76.61,9.95,0a3.93,3.93,0,0,1,.85-.17,4.39,4.39,0,0,0,1-.23,2.44,2.44,0,0,1,.72-.15,1.64,1.64,0,0,0,.66-.16,3,3,0,0,1,.75-.23,2.1,2.1,0,0,0,.68-.21,1.08,1.08,0,0,1,.46-.15,2.12,2.12,0,0,0,.64-.21,1.9,1.9,0,0,1,.61-.22.87.87,0,0,0,.41-.14,1.73,1.73,0,0,1,.53-.22,4.1,4.1,0,0,0,.67-.23,11.15,11.15,0,0,1,2.55-.9,1.26,1.26,0,0,0,.49-.16,3.33,3.33,0,0,1,.78-.22,1.5,1.5,0,0,0,.64-.22.59.59,0,0,1,.39-.15,2.65,2.65,0,0,0,.72-.22A2.43,2.43,0,0,1,61,81a.53.53,0,0,0,.37-.16.45.45,0,0,1,.3-.16,2.67,2.67,0,0,0,.65-.22c.27-.13.64-.29.82-.36l.8-.35a3.83,3.83,0,0,1,.77-.29c.16,0,.3-.11.3-.16s.14-.13.31-.17a1,1,0,0,0,.44-.22.44.44,0,0,1,.26-.15,1,1,0,0,0,.39-.2,1.76,1.76,0,0,1,.55-.27c.16,0,.29-.12.29-.17s.14-.13.31-.16a.87.87,0,0,0,.44-.23.46.46,0,0,1,.27-.15.54.54,0,0,0,.29-.13,2.72,2.72,0,0,1,1-.62.62.62,0,0,0,.34-.21.65.65,0,0,1,.34-.22.25.25,0,0,0,.21-.16.25.25,0,0,1,.19-.16,13.14,13.14,0,0,0,1.88-1.28,22.83,22.83,0,0,0,3-2.54c.43-.42.81-.77.83-.77a3.24,3.24,0,0,0,.58-.59,3.2,3.2,0,0,1,.33-.4,22.49,22.49,0,0,0,1.6-1.94.75.75,0,0,1,.18-.27,13.92,13.92,0,0,0,1.69-2.65,1.2,1.2,0,0,1,.26-.41A.28.28,0,0,0,81,65a1,1,0,0,1,.21-.43,1,1,0,0,0,.22-.46.47.47,0,0,1,.16-.32.52.52,0,0,0,.16-.36,1.79,1.79,0,0,1,.22-.64,1.47,1.47,0,0,0,.18-.69l0-.29-.07.27m-55.76,1.5a13.83,13.83,0,0,0,.14,2.45,13.34,13.34,0,0,1,.17,1.72,11.18,11.18,0,0,0,.1,1.39c.06.32.17,1.13.26,1.8a5.2,5.2,0,0,0,.28,1.34c.09.09.1,0,.06-.26s-.2-1.32-.44-3c-.09-.64-.23-2.28-.32-3.63s-.19-2.65-.2-2.89,0,.27-.05,1.13m4.16,1.79a2.25,2.25,0,0,0,.13.86,3.55,3.55,0,0,1,.22.91,3.39,3.39,0,0,0,.23.93,1.73,1.73,0,0,1,.16.61,1,1,0,0,0,.14.51,2.63,2.63,0,0,1,.26.69,12,12,0,0,0,.55,1.66,20.74,20.74,0,0,0,1.39,2.67l.66,1a10.48,10.48,0,0,0,2.53,2.3,2.34,2.34,0,0,1,.56.43,3.16,3.16,0,0,0,.55.75,1.12,1.12,0,0,1,.24.4,10,10,0,0,0,2.5,2.38c.06,0,.13.07.16.15a.65.65,0,0,0,.38.22,1,1,0,0,1,.45.22.4.4,0,0,0,.25.16,2,2,0,0,1,.55.21,1.87,1.87,0,0,0,.64.21.54.54,0,0,1,.33.11,11.42,11.42,0,0,0,2.39.53,14,14,0,0,0,1.5.12c.76,0,.83,0,.43.09a2.77,2.77,0,0,0-.72.2,4.73,4.73,0,0,1-1.17.23,6.87,6.87,0,0,0-1.27.22,31.76,31.76,0,0,1-6.24,0,2.57,2.57,0,0,0-.77-.17,3.07,3.07,0,0,1-.84-.22,3.51,3.51,0,0,0-.74-.21.48.48,0,0,1-.32-.15,1.06,1.06,0,0,0-.5-.22c-.2,0-.37-.11-.37-.16s-.11-.13-.24-.17a6.9,6.9,0,0,1-2.58-2.45c-.33-.47-.64-.92-.7-1a1.26,1.26,0,0,1-.17-.4,1,1,0,0,0-.22-.4.5.5,0,0,1-.15-.35,1.41,1.41,0,0,0-.21-.55,1.22,1.22,0,0,1-.22-.55.61.61,0,0,0-.14-.38,1.29,1.29,0,0,1-.22-.57,1.9,1.9,0,0,0-.17-.53,2.77,2.77,0,0,1-.2-.73,3.19,3.19,0,0,0-.21-.75,2.46,2.46,0,0,1-.17-.79,4.19,4.19,0,0,0-.23-1L28.75,72l.05.37c0,.21.15.81.27,1.34s.27,1.15.32,1.39.23.76.38,1.17.33.9.39,1.07a12.26,12.26,0,0,0,3.46,5.08,11.5,11.5,0,0,0,2.24,1.18,2.12,2.12,0,0,1,.42.14c1.61.7,6.47.92,9.1.42l1.5-.28q2.9-.51.1-.64c-4.19-.21-7.16-1.82-9.31-5a2.26,2.26,0,0,0-.57-.66,8.92,8.92,0,0,1-1.69-1.25,14.52,14.52,0,0,1-3.56-6.1c-.13-.41-.3-.92-.38-1.12a5.22,5.22,0,0,1-.21-.8,1.66,1.66,0,0,0-.16-.54,2.58,2.58,0,0,1-.15-.64c0-.29-.14-.8-.22-1.12s-.17-.71-.19-.86-.05,0-.06.3m5.13,1.07A16.89,16.89,0,0,0,36,69.38a23.15,23.15,0,0,0,.64,2.83c.13.41.3,1,.38,1.28a6.82,6.82,0,0,0,.24.75,14.12,14.12,0,0,1,.55,1.47c0,.69,1.6,1.57,3.26,1.8l1.29.2a24.64,24.64,0,0,0,5.13,0,25.26,25.26,0,0,0,4.12-.75,2.14,2.14,0,0,1,.46-.16l.34-.08h-.36a1.53,1.53,0,0,0-.64.14,4,4,0,0,1-.93.23,4.8,4.8,0,0,0-.91.18c-1.4.53-7.72.55-9.08,0a5.84,5.84,0,0,0-.7-.2,5.72,5.72,0,0,1-1.23-.49.78.78,0,0,1-.28-.31,2.48,2.48,0,0,0-.24-.36.47.47,0,0,1-.12-.29,2,2,0,0,0-.21-.56,1.83,1.83,0,0,1-.22-.59.81.81,0,0,0-.14-.4,2.08,2.08,0,0,1-.22-.68,2.92,2.92,0,0,0-.23-.77,1.54,1.54,0,0,1-.16-.6,1.54,1.54,0,0,0-.16-.61,4.52,4.52,0,0,1-.25-1.1,2.89,2.89,0,0,0-.22-.93,1.51,1.51,0,0,1-.11-.68,7.82,7.82,0,0,0-.16-1.34c-.08-.43-.17-.89-.2-1s-.05-.08-.06.19m35.72,1.64c-.13,0-.24.14-.24.2a.1.1,0,0,1-.09.11,2,2,0,0,0-.56.43c-.54.51-2.43,2-3.4,2.67a50,50,0,0,1-8,4.36l-.87.38a2.13,2.13,0,0,1-.48.17,16.25,16.25,0,0,0-1.59.59,37.16,37.16,0,0,1-4.7,1.33c-.59.1-1.82.36-2.73.57a42.45,42.45,0,0,1-7.82-.07c-1-.29-1.2-.18-.61.4,2.53,2.51,7.54,3.33,13.51,2.2a19.18,19.18,0,0,0,5.72-2.24,3.52,3.52,0,0,1,.44-.26l1.27-.75,1.05-.64c.43-.27.86-.57,1.46-1a9.82,9.82,0,0,1,.82-.59c.17-.1.84-.66,1.85-1.54a28.5,28.5,0,0,0,5.08-5.93c.24-.48.24-.5-.08-.37m-.35.72a2.53,2.53,0,0,1-.43.64,4.64,4.64,0,0,0-.42.6A12.41,12.41,0,0,1,69,71.51c-.43.5-2.81,2.89-2.87,2.89a8.31,8.31,0,0,0-1,.8,7.14,7.14,0,0,1-.68.53,1.57,1.57,0,0,0-.45.4.1.1,0,0,1-.11.09,1.31,1.31,0,0,0-.46.27l-.44.35c-.25.18-1.33.87-1.91,1.21-.35.2-.75.44-.91.55s-.43.25-.6.34l-.48.26c-.32.19-2.44,1.25-2.94,1.46a15.86,15.86,0,0,1-2.73.69c-2.2.46-7.6.48-8.64.05a1.89,1.89,0,0,0-.62-.16,1.85,1.85,0,0,1-.68-.21,1.89,1.89,0,0,0-.69-.21c-.15,0-.27,0-.27-.1s-.16-.15-.35-.23a8.2,8.2,0,0,1-1.77-1.3,1.12,1.12,0,0,0-.2-.25c-.14-.14-.14-.15,0-.15s.17,0,.17.09a16.64,16.64,0,0,0,4.17.47,34.49,34.49,0,0,0,4.65-.4,6.16,6.16,0,0,1,1-.21,4.68,4.68,0,0,0,1-.22,3.54,3.54,0,0,1,.8-.16,1.64,1.64,0,0,0,.65-.15,3.19,3.19,0,0,1,.78-.22,2.86,2.86,0,0,0,.79-.23,1.51,1.51,0,0,1,.56-.15,1,1,0,0,0,.48-.15,1.92,1.92,0,0,1,.59-.22,2,2,0,0,0,.58-.23.9.9,0,0,1,.41-.15,1.75,1.75,0,0,0,.59-.21,1.72,1.72,0,0,1,.62-.22.5.5,0,0,0,.36-.16.51.51,0,0,1,.28-.16,2.69,2.69,0,0,0,.66-.23c1.12-.51,3.62-1.71,3.77-1.8l.43-.24a1.33,1.33,0,0,0,.32-.21,4.84,4.84,0,0,1,.72-.43A7.23,7.23,0,0,0,66.49,72c0-.05.07-.1.15-.1a.57.57,0,0,0,.33-.21.62.62,0,0,1,.32-.21.61.61,0,0,0,.32-.22.76.76,0,0,1,.29-.21c.09,0,.14,0,1-.75a3.47,3.47,0,0,1,.56-.43,1.51,1.51,0,0,0,.39-.32,1.4,1.4,0,0,1,.4-.32.88.88,0,0,0,.34-.27c.26-.27.43-.34.43-.17m-43.6,4.09c0,.5.31,1.74.39,1.49a2.66,2.66,0,0,0-.12-.79,9.25,9.25,0,0,1-.21-.93c0-.14-.05,0-.06.23m.43,2a1.28,1.28,0,0,0,.14.59,1.15,1.15,0,0,1,.16.46c0,.28.32,1,.4.89s0-.17-.05-.31-.23-.62-.38-1.09-.27-.76-.27-.54"/><path id="path2" class="cls-3" d="M.48.51C.41.56.38,18.4.4,53.74l0,53.16H106.9V53.73c0-48.39,0-53.18-.17-53.24S.61.42.48.51M45.19,21.63a7.94,7.94,0,0,1,1.41.28,1.89,1.89,0,0,0,.62.12,3.52,3.52,0,0,1,1,.21,4.65,4.65,0,0,0,.91.21,1.14,1.14,0,0,1,.54.14,2.15,2.15,0,0,0,.63.23,1.83,1.83,0,0,1,.64.23.9.9,0,0,0,.41.15,1.75,1.75,0,0,1,.59.21,1.76,1.76,0,0,0,.63.22c.13,0,.27,0,.3.1a1.4,1.4,0,0,0,.54.23c.26.06.48.15.48.2s.19.13.43.2.42.18.42.23.09.1.2.1A16.26,16.26,0,0,1,57.59,26l.46.21a2.72,2.72,0,0,1,.42.21l.75.45a5.85,5.85,0,0,1,.64.4,4.45,4.45,0,0,0,.67.38,2.37,2.37,0,0,1,.62.4s.06.08.14.08a.65.65,0,0,1,.34.22.58.58,0,0,0,.32.21.65.65,0,0,1,.32.22.68.68,0,0,0,.34.21c.08,0,.14,0,.14.09s.14.15.3.22a2.87,2.87,0,0,1,.65.44,1.44,1.44,0,0,0,.43.32c.05,0,.17.1.28.21a.63.63,0,0,0,.31.22.58.58,0,0,1,.3.18,9.75,9.75,0,0,0,1.35,1.13c.88.7,1.15.94,2.31,2a53.4,53.4,0,0,1,4,4.18.2.2,0,0,0,.17.1,32.84,32.84,0,0,1,3,3,31.17,31.17,0,0,1,2.9,3.78c0,.06.07.13.16.16a.3.3,0,0,1,.16.22.53.53,0,0,0,.13.3A5.73,5.73,0,0,1,80,46.64a5.55,5.55,0,0,0,.32.61,4.61,4.61,0,0,1,.39.8.86.86,0,0,0,.21.39.44.44,0,0,1,.15.3.9.9,0,0,0,.21.43.9.9,0,0,1,.22.44,1.55,1.55,0,0,0,.15.49,6.85,6.85,0,0,1,.6,1.73,1.46,1.46,0,0,0,.16.55,3.74,3.74,0,0,1,.22.93,6.44,6.44,0,0,0,.23,1.1,21.29,21.29,0,0,1,0,5.35,5.55,5.55,0,0,0-.23,1.08,2.08,2.08,0,0,1-.23.8,1,1,0,0,0-.15.5,1.82,1.82,0,0,1-.22.69,1.92,1.92,0,0,0-.21.63.52.52,0,0,1-.16.36.47.47,0,0,0-.16.32,1,1,0,0,1-.22.46A1,1,0,0,0,81,65a.28.28,0,0,1-.11.23,1.2,1.2,0,0,0-.26.41A13.92,13.92,0,0,1,79,68.32a.75.75,0,0,0-.18.27,22.49,22.49,0,0,1-1.6,1.94,3.2,3.2,0,0,0-.33.4,3.24,3.24,0,0,1-.58.59s-.4.35-.83.77a22.83,22.83,0,0,1-3,2.54,13.14,13.14,0,0,1-1.88,1.28.25.25,0,0,0-.19.16.25.25,0,0,1-.21.16.65.65,0,0,0-.34.22.62.62,0,0,1-.34.21,2.72,2.72,0,0,0-1,.62.54.54,0,0,1-.29.13.46.46,0,0,0-.27.15.87.87,0,0,1-.44.23c-.17,0-.31.11-.31.16s-.13.13-.29.17a1.76,1.76,0,0,0-.55.27,1,1,0,0,1-.39.2.44.44,0,0,0-.26.15,1,1,0,0,1-.44.22c-.17,0-.31.11-.31.17s-.14.12-.3.16a3.83,3.83,0,0,0-.77.29l-.8.35c-.18.07-.55.23-.82.36a2.67,2.67,0,0,1-.65.22.45.45,0,0,0-.3.16A.53.53,0,0,1,61,81a2.43,2.43,0,0,0-.71.21,2.65,2.65,0,0,1-.72.22.59.59,0,0,0-.39.15,1.5,1.5,0,0,1-.64.22,3.33,3.33,0,0,0-.78.22,1.26,1.26,0,0,1-.49.16,4.59,4.59,0,0,0-.86.22c-.6.21-.86.32-1.72.7a6,6,0,0,1-.64.21,1.73,1.73,0,0,0-.53.22.87.87,0,0,1-.41.14,1.9,1.9,0,0,0-.61.22,2.12,2.12,0,0,1-.64.21,1.08,1.08,0,0,0-.46.15,2.1,2.1,0,0,1-.68.21,3,3,0,0,0-.75.23,1.64,1.64,0,0,1-.66.16,2.44,2.44,0,0,0-.72.15,4.39,4.39,0,0,1-1,.23,3.93,3.93,0,0,0-.85.17c-1.19.61-9.18.61-9.95,0a2.11,2.11,0,0,0-.62-.17,2,2,0,0,1-.69-.22.76.76,0,0,0-.38-.16,3.55,3.55,0,0,1-1.38-.65.12.12,0,0,0-.13-.1,8.49,8.49,0,0,1-2.75-2.54.22.22,0,0,0-.16-.17.25.25,0,0,1-.16-.21.65.65,0,0,0-.22-.34.69.69,0,0,1-.21-.39c0-.11,0-.2-.09-.2a10.56,10.56,0,0,1-1.09-2.16,1,1,0,0,0-.22-.46.52.52,0,0,1-.1-.35,2,2,0,0,0-.21-.72,1.89,1.89,0,0,1-.22-.63,1.17,1.17,0,0,0-.16-.49,1.33,1.33,0,0,1-.15-.54,3.91,3.91,0,0,0-.22-.88,4,4,0,0,1-.21-1.12,1.38,1.38,0,0,0-.11-.63A5.81,5.81,0,0,1,27,71c-.09-.67-.2-1.48-.26-1.8a11.18,11.18,0,0,1-.1-1.39A13,13,0,0,0,26.44,66a154.65,154.65,0,0,1,0-15.53,17.62,17.62,0,0,0,.18-2.14c0-.51.06-1.27.11-1.68s.17-1.36.26-2.12a12.31,12.31,0,0,1,.25-1.65,5.15,5.15,0,0,0,.17-1,5.08,5.08,0,0,1,.22-1.17,3.09,3.09,0,0,0,.16-.78,1.72,1.72,0,0,1,.15-.65,2.93,2.93,0,0,0,.22-.75,2.92,2.92,0,0,1,.23-.77,1.86,1.86,0,0,0,.16-.55,1.86,1.86,0,0,1,.21-.67,2.54,2.54,0,0,0,.21-.66.52.52,0,0,1,.16-.36.47.47,0,0,0,.16-.32,3.72,3.72,0,0,1,.65-1.34.32.32,0,0,0,.1-.25,2.67,2.67,0,0,1,.37-.75,4.7,4.7,0,0,0,.38-.62,3.61,3.61,0,0,1,.43-.57,2.57,2.57,0,0,0,.43-.65.78.78,0,0,1,.16-.36,1,1,0,0,0,.16-.48,2,2,0,0,1,.21-.7,2.15,2.15,0,0,0,.21-.6.47.47,0,0,1,.16-.31.56.56,0,0,0,.17-.36,2.41,2.41,0,0,1,.32-.76c.17-.29.38-.68.47-.86a13.77,13.77,0,0,1,.74-1.21,11.64,11.64,0,0,1,2.08-2.15.29.29,0,0,0,.2-.14,2.46,2.46,0,0,1,.88-.61,2.33,2.33,0,0,0,.51-.21A1.78,1.78,0,0,1,38.6,22a.64.64,0,0,0,.38-.11A4.29,4.29,0,0,1,40,21.64a6.4,6.4,0,0,0,1-.21,23.49,23.49,0,0,1,4.15.2m-3.77,1.46a9.34,9.34,0,0,0-2.35.49,5.83,5.83,0,0,0-2.54,1.68,10.39,10.39,0,0,0-.93,1,2.42,2.42,0,0,1-.31.55c-.17.26-.44.73-.6,1s-.33.67-.39.78c-.15.28.15.35.57.13a3,3,0,0,1,.78-.27c.24-.05.69-.17,1-.26a7.08,7.08,0,0,1,1.65-.17c1,0,1.07,0,1.5-.35a12.43,12.43,0,0,1,1.88-1.27,6.74,6.74,0,0,1,1.87-.62,7.54,7.54,0,0,0,1-.16,14.22,14.22,0,0,1,4.12,0,8.79,8.79,0,0,0,1.24.16,3.55,3.55,0,0,1,1,.16,6.42,6.42,0,0,0,1,.23,3,3,0,0,1,.84.21,1.49,1.49,0,0,0,.52.15,1.86,1.86,0,0,1,.57.15,4.55,4.55,0,0,0,.79.27,1.59,1.59,0,0,1,.51.22c0,.06.19.11.35.11a2.24,2.24,0,0,1,.72.21,2.22,2.22,0,0,0,.59.21.8.8,0,0,1,.38.16,2,2,0,0,0,.61.22c.23,0,.39.14.39.22s.12.15.35.14h.35l-.35-.16c-.19-.08-.35-.2-.35-.26S58.09,28,58,28a3.38,3.38,0,0,1-1.24-.66c0-.05-.06-.09-.15-.09a4.43,4.43,0,0,1-1.32-.67.25.25,0,0,0-.2-.08,1.9,1.9,0,0,1-.56-.2A6.57,6.57,0,0,0,53,25.66a.52.52,0,0,1-.3-.16.45.45,0,0,0-.31-.16,1.85,1.85,0,0,1-.57-.22,1.75,1.75,0,0,0-.59-.21.94.94,0,0,1-.41-.15,1.77,1.77,0,0,0-.63-.23,2.86,2.86,0,0,1-.68-.22,1.46,1.46,0,0,0-.55-.15,1.45,1.45,0,0,1-.57-.16,1.45,1.45,0,0,0-.57-.16,4.11,4.11,0,0,1-.86-.21,3.86,3.86,0,0,0-1-.22,6.59,6.59,0,0,1-1.07-.15,14.42,14.42,0,0,0-3.46-.17m2.78,4.33a2,2,0,0,1-.62.16,2.13,2.13,0,0,0-.71.21,2,2,0,0,1-.59.22c-.09,0-.16,0-.16.11s.69.42,1.17.42a2.47,2.47,0,0,1,.79.15,5.39,5.39,0,0,0,.94.23,3.36,3.36,0,0,1,.79.19,2.61,2.61,0,0,0,.64.19,9.59,9.59,0,0,1,1.83.61c.11.05.34.15.52.21.87.3,1.2.44,2.35.93.37.16,1.42.67,1.66.8.09,0,.42.22.75.37s.66.32.75.38l.42.21a4,4,0,0,1,.59.33c.18.12.47.29.64.38s.45.24.61.34.73.45,1.26.77a5.27,5.27,0,0,1,1,.66c0,.05.06.09.14.09a.65.65,0,0,1,.34.22.64.64,0,0,0,.27.21,3,3,0,0,1,1,.66.09.09,0,0,0,.1.09.68.68,0,0,1,.3.16c.1.09.68.55,1.3,1,2.26,1.72,6.63,5.85,6.63,6.26a2.88,2.88,0,0,0,.3.34,11.92,11.92,0,0,1,.81.93c.58.74.54.7,1,1.39a3.28,3.28,0,0,0,.45.57.16.16,0,0,1,.09.14,2.72,2.72,0,0,0,.34.61,8.58,8.58,0,0,1,.78,1.25c.09.17.3.56.48.85a2.63,2.63,0,0,1,.31.71.29.29,0,0,0,.17.24.28.28,0,0,1,.16.25,1.68,1.68,0,0,0,.22.59,2,2,0,0,1,.21.56,1.55,1.55,0,0,0,.21.51,1.45,1.45,0,0,1,.22.52,1.37,1.37,0,0,0,.16.49,1.54,1.54,0,0,1,.16.55,2,2,0,0,0,.16.62,4.83,4.83,0,0,1,.22,1.09,4.05,4.05,0,0,0,.18.93,6.29,6.29,0,0,1,.18,1.33l.06,1.13.24-.46a2.42,2.42,0,0,0,.24-.59,2.26,2.26,0,0,1,.21-.56,1.94,1.94,0,0,0,.22-.66,2,2,0,0,1,.17-.65,6.41,6.41,0,0,0,.27-1.2,12.17,12.17,0,0,0,.2-3.46c-.07-.48-.16-1.25-.21-1.73A6.53,6.53,0,0,0,76.81,49a2.25,2.25,0,0,1-.16-.69,1.06,1.06,0,0,0-.16-.53,1.87,1.87,0,0,1-.23-.66,1.11,1.11,0,0,0-.21-.56.55.55,0,0,1-.15-.37.55.55,0,0,0-.16-.37.92.92,0,0,1-.22-.36c-.06-.19-.56-1.23-1.11-2.29a1,1,0,0,0-.25-.35,3.25,3.25,0,0,1-.53-.85,1,1,0,0,0-.27-.35.32.32,0,0,1-.13-.22A.65.65,0,0,0,73,41.1a.62.62,0,0,1-.21-.33c0-.08,0-.15-.08-.15a2.84,2.84,0,0,1-.56-.65c-.27-.36-.57-.73-.67-.83a.56.56,0,0,1-.19-.31c0-.07,0-.13-.08-.13a2.26,2.26,0,0,1-.48-.37c-.22-.2-.58-.5-.8-.67l-.52-.4-.57-.49c-.25-.2-.55-.45-.66-.56A.7.7,0,0,0,67.9,36a.71.71,0,0,1-.29-.22.6.6,0,0,0-.28-.21.85.85,0,0,1-.3-.19,3,3,0,0,0-.8-.58c-.15-.07-.27-.16-.27-.21s-.07-.09-.15-.09a.66.66,0,0,1-.33-.21.71.71,0,0,0-.29-.22,3.21,3.21,0,0,1-.62-.37,2.91,2.91,0,0,0-.63-.38.65.65,0,0,1-.28-.21.63.63,0,0,0-.33-.21.49.49,0,0,1-.28-.14,5.65,5.65,0,0,0-.75-.45,2.85,2.85,0,0,1-.62-.39s-.14-.11-.32-.15a.81.81,0,0,1-.37-.16A5.41,5.41,0,0,0,59.73,31c-.16-.06-.29-.16-.29-.22s-.1-.11-.21-.11A4,4,0,0,1,57.89,30a.44.44,0,0,0-.27-.1,1.73,1.73,0,0,1-.56-.21,1.83,1.83,0,0,0-.59-.22.8.8,0,0,1-.41-.15,2,2,0,0,0-.61-.22,1.11,1.11,0,0,1-.51-.22.59.59,0,0,0-.41-.15,1,1,0,0,1-.5-.16,1.84,1.84,0,0,0-.71-.23,1.25,1.25,0,0,1-.63-.22.73.73,0,0,0-.47-.14,4.32,4.32,0,0,1-1-.22,5,5,0,0,0-1.11-.21,3.92,3.92,0,0,1-1-.16,18.9,18.9,0,0,0-4.93,0m-7.48,2.5a2.33,2.33,0,0,0-.66.21,1,1,0,0,1-.41.12,1,1,0,0,0-.45.22,1.05,1.05,0,0,1-.47.21.29.29,0,0,0-.27.16.23.23,0,0,1-.19.16c-.45,0-1.34,1.23-1.34,1.83a1.4,1.4,0,0,1-.13.56,5.06,5.06,0,0,0-.26,1.09c-.07.47-.18,1.12-.24,1.44-.17.86-.33,2-.45,3.31-.06.62-.18,1.47-.26,1.9a12.27,12.27,0,0,0-.16,2c0,.69-.07,2.22-.16,3.4a89.66,89.66,0,0,0,0,10.63c.09,1,.16,2.25.16,2.84a8.41,8.41,0,0,0,.16,1.69,10.57,10.57,0,0,1,.23,1.54A4.5,4.5,0,0,0,32,64.31a4.5,4.5,0,0,1,.2,1,5.2,5.2,0,0,0,.21,1.11,4.53,4.53,0,0,1,.18.83,2.6,2.6,0,0,0,.22.86,1.07,1.07,0,0,1,.15.53,2.19,2.19,0,0,0,.21.75,2.2,2.2,0,0,1,.21.66.6.6,0,0,0,.16.36.45.45,0,0,1,.16.31,1.85,1.85,0,0,0,.22.57,1.88,1.88,0,0,1,.21.5,11.51,11.51,0,0,0,1,1.81.41.41,0,0,1,.14.24.11.11,0,0,0,.11.1c.14,0,0-.89-.17-1.34A4.77,4.77,0,0,1,35,71.7a1.68,1.68,0,0,0-.17-.67,2.07,2.07,0,0,1-.15-.66,7.92,7.92,0,0,0-.22-1.1,11.11,11.11,0,0,1-.25-1.55c-.06-.59-.16-1.28-.22-1.55a10.29,10.29,0,0,1-.11-1.5,22.28,22.28,0,0,0-.16-2.3,128.84,128.84,0,0,1,0-13c.08-.82.15-2,.16-2.73a15.82,15.82,0,0,1,.16-2.19c.09-.53.2-1.48.26-2.13a13,13,0,0,1,.21-1.6c.06-.24.16-.74.22-1.13A13.29,13.29,0,0,1,35.27,37a1.49,1.49,0,0,0,.11-.55,3.09,3.09,0,0,1,.22-.86,3,3,0,0,0,.21-.85.61.61,0,0,1,.16-.43.55.55,0,0,0,.16-.37,1.9,1.9,0,0,1,.22-.65,2.15,2.15,0,0,0,.21-.6.47.47,0,0,1,.16-.31,1,1,0,0,0,.22-.49,1.09,1.09,0,0,1,.15-.42,4,4,0,0,0,.44-.74A2.73,2.73,0,0,1,38,30a.1.1,0,0,0,.09-.11c0-.12-.67-.12-1.34,0m3.36,0a10.31,10.31,0,0,0-1.33,2c-.11.28-.51,1.12-.6,1.29a1.57,1.57,0,0,0-.13.26l-.22.64c-.1.3-.23.75-.29,1a2.11,2.11,0,0,1-.19.59,2.1,2.1,0,0,0-.17.65,2.89,2.89,0,0,1-.23.82,1.72,1.72,0,0,0-.15.64,2.93,2.93,0,0,1-.16.78,6,6,0,0,0-.23,1.23,4,4,0,0,1-.19,1.07,5.92,5.92,0,0,0-.2,1.39,10.64,10.64,0,0,1-.18,1.5,18.86,18.86,0,0,0-.21,2.3c-.06,1.06-.15,2.26-.22,2.67-.16,1-.15,13.27,0,14.06A19.84,19.84,0,0,1,35.6,65a19.43,19.43,0,0,0,.26,2.29A7.81,7.81,0,0,1,36,68.64a1.54,1.54,0,0,0,.12.7,2.89,2.89,0,0,1,.22.93,4.52,4.52,0,0,0,.25,1.1,1.54,1.54,0,0,1,.16.61,1.54,1.54,0,0,0,.16.6,2.92,2.92,0,0,1,.23.77,2.08,2.08,0,0,0,.22.68.81.81,0,0,1,.14.4,1.83,1.83,0,0,0,.22.59,2,2,0,0,1,.21.56.47.47,0,0,0,.12.29,2.48,2.48,0,0,1,.24.36.78.78,0,0,0,.28.31,5.72,5.72,0,0,0,1.23.49,5.84,5.84,0,0,1,.7.2c1.36.53,7.68.51,9.08,0a4.8,4.8,0,0,1,.91-.18,4,4,0,0,0,.93-.23,1.61,1.61,0,0,1,.6-.15,1.54,1.54,0,0,0,.62-.16,3,3,0,0,1,.79-.23,2.09,2.09,0,0,0,.69-.21,1,1,0,0,1,.49-.15,2,2,0,0,0,.67-.21,1.78,1.78,0,0,1,.6-.22,1.4,1.4,0,0,0,.51-.16,6.1,6.1,0,0,1,1.51-.59.48.48,0,0,0,.34-.16.49.49,0,0,1,.31-.16,1.18,1.18,0,0,0,.49-.21,1.27,1.27,0,0,1,.55-.21.51.51,0,0,0,.35-.15.78.78,0,0,1,.4-.22,1,1,0,0,0,.43-.23.64.64,0,0,1,.36-.15.36.36,0,0,0,.27-.11,6.4,6.4,0,0,1,1.18-.65,6.18,6.18,0,0,0,1.11-.63s.09-.12.19-.15a8.16,8.16,0,0,0,1.34-.79,5.41,5.41,0,0,1,.56-.35,8.08,8.08,0,0,0,.79-.56l1.25-.93c.28-.21.62-.47.75-.59l.54-.47a37,37,0,0,0,3-3L73,64a2.46,2.46,0,0,0,.6-1.13,5.84,5.84,0,0,1,.22-.82,18.79,18.79,0,0,0,0-5,6.2,6.2,0,0,1-.22-1,3.48,3.48,0,0,0-.23-.92,1.71,1.71,0,0,1-.15-.53,2,2,0,0,0-.21-.68,3.34,3.34,0,0,1-.21-.53A8.43,8.43,0,0,0,72.2,52a1.27,1.27,0,0,1-.15-.44.46.46,0,0,0-.15-.28.83.83,0,0,1-.22-.44c0-.17-.11-.32-.16-.32s-.13-.1-.17-.23a3.94,3.94,0,0,0-.44-.75,3.24,3.24,0,0,1-.36-.61.48.48,0,0,0-.13-.24c-.07-.08-.37-.49-.65-.92a3.72,3.72,0,0,0-.62-.77c-.05,0-.09,0-.09-.12A6.34,6.34,0,0,0,68,45.56a.14.14,0,0,1-.1-.12c0-.35-4.1-4.35-6-5.84a7.58,7.58,0,0,1-.95-.81.2.2,0,0,0-.18-.09c-.08,0-.16,0-.17-.08a3.88,3.88,0,0,0-1.05-.78.1.1,0,0,1-.11-.1c0-.05-.09-.13-.2-.16a2.85,2.85,0,0,1-.87-.62,3.71,3.71,0,0,0-.88-.53c-.17-.07-.3-.17-.3-.21s-.15-.16-.35-.25a9.29,9.29,0,0,1-1.25-.75c-.27-.17-.75-.45-1.07-.61l-1.34-.72c-.41-.24-.82-.45-.91-.49s-.33-.15-.55-.27a2,2,0,0,0-.55-.2.53.53,0,0,1-.29-.16.46.46,0,0,0-.3-.17,1.55,1.55,0,0,1-.55-.19,3.75,3.75,0,0,0-.67-.27c-.16,0-.29-.12-.29-.18s-.09-.1-.19-.1a1.9,1.9,0,0,1-.61-.22,2.15,2.15,0,0,0-.6-.21,2.7,2.7,0,0,1-.65-.21,2.6,2.6,0,0,0-.73-.22,1,1,0,0,1-.49-.14,1.88,1.88,0,0,0-.69-.21,3,3,0,0,1-.8-.23,1.79,1.79,0,0,0-.67-.17,2.38,2.38,0,0,1-.72-.15A6.72,6.72,0,0,0,40.08,30m-9.83,7.52c0,.15,0,.27,0,.27s.07-.12.1-.27,0-.27,0-.27-.1.12-.1.27m-.37,1a3.09,3.09,0,0,1-.17.69,5.25,5.25,0,0,0-.21.9,3.58,3.58,0,0,1-.2.85,3.17,3.17,0,0,0-.16.86A7.78,7.78,0,0,1,28.91,43a5.5,5.5,0,0,0-.16,1.11,7.6,7.6,0,0,1-.16,1.34,16.73,16.73,0,0,0-.21,1.93,15.56,15.56,0,0,1-.24,2c-.23,1.06-.26,16.83,0,17.37a8.52,8.52,0,0,1,.24,1.6,14.58,14.58,0,0,0,.26,1.89,5.3,5.3,0,0,1,.16,1.15,3.05,3.05,0,0,0,.15.92,4.5,4.5,0,0,1,.23,1,2.46,2.46,0,0,0,.17.79,3.19,3.19,0,0,1,.21.75,2.77,2.77,0,0,0,.2.73,1.9,1.9,0,0,1,.17.53,1.29,1.29,0,0,0,.22.57.61.61,0,0,1,.14.38,1.22,1.22,0,0,0,.22.55,1.41,1.41,0,0,1,.21.55.5.5,0,0,0,.15.35,1,1,0,0,1,.22.4,1.26,1.26,0,0,0,.17.4c.06.06.37.51.7,1a6.9,6.9,0,0,0,2.58,2.45c.13,0,.24.12.24.17s.17.12.37.16a1.06,1.06,0,0,1,.5.22.48.48,0,0,0,.32.15,3.51,3.51,0,0,1,.74.21,3.07,3.07,0,0,0,.84.22,2.57,2.57,0,0,1,.77.17,31.76,31.76,0,0,0,6.24,0,6.87,6.87,0,0,1,1.27-.22A4.73,4.73,0,0,0,47,83.68a2.77,2.77,0,0,1,.72-.2c.4-.06.33-.07-.43-.09a14,14,0,0,1-1.5-.12,11.42,11.42,0,0,1-2.39-.53.54.54,0,0,0-.33-.11,1.87,1.87,0,0,1-.64-.21,2,2,0,0,0-.55-.21.4.4,0,0,1-.25-.16,1,1,0,0,0-.45-.22.65.65,0,0,1-.38-.22c0-.08-.1-.15-.16-.15a10,10,0,0,1-2.5-2.38,1.12,1.12,0,0,0-.24-.4,3.16,3.16,0,0,1-.55-.75,2.34,2.34,0,0,0-.56-.43,10.48,10.48,0,0,1-2.53-2.3l-.66-1a20.74,20.74,0,0,1-1.39-2.67,12,12,0,0,1-.55-1.66,2.63,2.63,0,0,0-.26-.69,1,1,0,0,1-.14-.51,1.73,1.73,0,0,0-.16-.61,3.39,3.39,0,0,1-.23-.93,3.55,3.55,0,0,0-.22-.91,2.23,2.23,0,0,1-.14-.81,5.72,5.72,0,0,0-.17-1.15A12.55,12.55,0,0,1,30,62.38c-.05-.71-.14-1.57-.19-1.93-.47-2.78-.47-14.6,0-18A27.92,27.92,0,0,0,30.05,38c-.05-.06-.12.11-.17.42M78,47.12a1.75,1.75,0,0,0,.2.61,1.12,1.12,0,0,1,.15.55,3.11,3.11,0,0,0,.17.8c.5,1.35.5,6.45,0,7.6a2.44,2.44,0,0,0-.17.75,1.2,1.2,0,0,1-.15.57,1.75,1.75,0,0,0-.22.55,5,5,0,0,1-.38.94,4.54,4.54,0,0,0-.37.91,1,1,0,0,1-.22.43.45.45,0,0,0-.16.32.48.48,0,0,1-.15.31,1,1,0,0,0-.23.36,4.25,4.25,0,0,1-.66,1,.52.52,0,0,0-.13.24,2.59,2.59,0,0,1-.56.83,1,1,0,0,0-.15.43,2.32,2.32,0,0,1-.21.63.89.89,0,0,0-.15.42,1.38,1.38,0,0,1-.22.54,1.61,1.61,0,0,0-.21.55.51.51,0,0,1-.15.33.92.92,0,0,0-.23.44.63.63,0,0,1-.17.37,1.7,1.7,0,0,0-.26.4A23.64,23.64,0,0,1,70,72.9a1.75,1.75,0,0,0-.36.46s-.07.08-.16.08a.16.16,0,0,0-.16.15,4.25,4.25,0,0,1-.87.94c-.47.43-1.12,1-1.42,1.33a4.29,4.29,0,0,1-.74.61c-.1,0-.18.11-.18.17s-.1.13-.22.17-.19.11-.11.18.2.05.41-.1a4.06,4.06,0,0,1,.46-.28c.09,0,.35-.19.59-.34s.57-.33.75-.42a13.1,13.1,0,0,0,1.23-.74,7.61,7.61,0,0,0,1.42-1,.29.29,0,0,1,.22-.13.59.59,0,0,0,.33-.22.66.66,0,0,1,.29-.21.75.75,0,0,0,.28-.19c.32-.3.8-.7,1.25-1a7.19,7.19,0,0,0,.77-.66,1.84,1.84,0,0,1,.39-.36A14.23,14.23,0,0,0,75.47,70a2.14,2.14,0,0,1,.36-.39c.2-.2.66-.73,1-1.19s.73-.91.81-1a1.2,1.2,0,0,0,.22-.36c0-.12.11-.22.17-.22a.09.09,0,0,0,.09-.1,3,3,0,0,1,.35-.61,7.85,7.85,0,0,0,.83-1.45c.07-.16.17-.3.22-.3s.1-.06.1-.13a1.73,1.73,0,0,1,.22-.53,2.07,2.07,0,0,0,.21-.54,2.59,2.59,0,0,1,.21-.56,1.93,1.93,0,0,0,.21-.62,1.41,1.41,0,0,1,.15-.49,4.58,4.58,0,0,0,.28-.76c.06-.26.17-.67.23-.91a18.88,18.88,0,0,0-.49-7.32,2.78,2.78,0,0,1-.21-.67,3.29,3.29,0,0,0-.22-.69,1.26,1.26,0,0,1-.16-.46.88.88,0,0,0-.15-.38,2,2,0,0,1-.21-.51,1.47,1.47,0,0,0-.23-.47.54.54,0,0,1-.16-.35.33.33,0,0,0-.12-.27,1.49,1.49,0,0,1-.27-.41,7.16,7.16,0,0,0-.36-.66,4.19,4.19,0,0,1-.34-.61c-.19-.42-.3-.36-.22.11M70.55,69a.88.88,0,0,1-.34.27,1.4,1.4,0,0,0-.4.32,1.51,1.51,0,0,1-.39.32,3.47,3.47,0,0,0-.56.43c-.82.71-.87.75-1,.75a.76.76,0,0,0-.29.21.61.61,0,0,1-.32.22.62.62,0,0,0-.32.21.57.57,0,0,1-.33.21c-.08,0-.15,0-.15.1a7.23,7.23,0,0,1-1.84,1.16,4.84,4.84,0,0,0-.72.43,1.33,1.33,0,0,1-.32.21l-.43.24c-.15.09-2.65,1.29-3.77,1.8a2.69,2.69,0,0,1-.66.23.51.51,0,0,0-.28.16.5.5,0,0,1-.36.16,1.72,1.72,0,0,0-.62.22,1.75,1.75,0,0,1-.59.21.9.9,0,0,0-.41.15,2,2,0,0,1-.58.23,1.92,1.92,0,0,0-.59.22,1,1,0,0,1-.48.15,1.51,1.51,0,0,0-.56.15,2.86,2.86,0,0,1-.79.23,3.19,3.19,0,0,0-.78.22,1.64,1.64,0,0,1-.65.15,3.54,3.54,0,0,0-.8.16,4.68,4.68,0,0,1-1,.22,6.16,6.16,0,0,0-1,.21,34.49,34.49,0,0,1-4.65.4,16.64,16.64,0,0,1-4.17-.47s-.08-.09-.17-.09-.15,0,0,.15a1.12,1.12,0,0,1,.2.25,8.2,8.2,0,0,0,1.77,1.3c.19.08.35.18.35.23s.12.1.27.1a1.89,1.89,0,0,1,.69.21,1.85,1.85,0,0,0,.68.21,1.89,1.89,0,0,1,.62.16c1,.43,6.44.41,8.64-.05a15.86,15.86,0,0,0,2.73-.69c.5-.21,2.62-1.27,2.94-1.46l.48-.26c.17-.09.45-.24.6-.34s.56-.35.91-.55c.58-.34,1.66-1,1.91-1.21l.44-.35a1.31,1.31,0,0,1,.46-.27.1.1,0,0,0,.11-.09,1.57,1.57,0,0,1,.45-.4,7.14,7.14,0,0,0,.68-.53,8.31,8.31,0,0,1,1-.8c.06,0,2.44-2.39,2.87-2.89a12.41,12.41,0,0,0,1.13-1.44,4.64,4.64,0,0,1,.42-.6,2.53,2.53,0,0,0,.43-.64c0-.17-.17-.1-.43.17"/><path id="path3" class="cls-4" d="M.53.1S.4.25.24.31s-.22.1,0,0S24.43.27,53.71.27s53.15,0,53.05,0-.18-.08-.18-.13S86,0,53.56,0C21.49,0,.53,0,.53.1M41.18,21.67a1.21,1.21,0,0,0,.38,0c.1,0,0-.05-.19-.05s-.29,0-.19.05m2.14,0a1.21,1.21,0,0,0,.38,0c.1,0,0-.05-.19-.05s-.29,0-.19.05M41.83,23c.4,0,1,0,1.39,0s0,0-.73,0-1.06,0-.66,0m4.22,2.77a4.12,4.12,0,0,0,.86,0c.21,0,0,0-.46,0s-.65,0-.4,0m-.7,1.39a2,2,0,0,0,.59,0c.16,0,0,0-.29,0s-.46,0-.3,0m1.82,0a2,2,0,0,0,.59,0c.16,0,0,0-.3,0s-.45,0-.29,0M41.8,28.28c0,.14,0,.26.09.26s.07-.12,0-.26a.62.62,0,0,0-.09-.27s0,.12,0,.27m-4.14,0a2.34,2.34,0,0,0,.53,0c.13,0,0-.05-.29-.05s-.41,0-.24.05m21.84.93c.25.2.83.22.77,0a.34.34,0,0,0-.2-.17c-.12,0-.12,0,0,.07s.1.12-.13.12-.32-.05-.35-.11a.27.27,0,0,0-.19-.1c-.07,0,0,.07.09.15m.87.24c-.11.11,0,.25.25.25s.21,0,.21-.12-.08-.09-.17-.05-.14,0-.1-.05-.08-.14-.19,0m-20.3.22c-.12.16-.12.17,0,.07a1.21,1.21,0,0,1,.43-.18l.26,0H40.5a.6.6,0,0,0-.43.17m28.45,4.25a2.26,2.26,0,0,0,.42.38s-.11-.17-.31-.38a2.44,2.44,0,0,0-.42-.37,1.54,1.54,0,0,0,.31.37M30.3,36.57c-.05.08,0,.1,0,0s.13.11.15.55l0,.62,0-.58c0-.57-.09-.9-.25-.64m1.37,2.34c0,.21,0,.29,0,.19a1.21,1.21,0,0,0,0-.38c0-.1,0,0,0,.19m42.63.78a2.17,2.17,0,0,0,.34.35l.35.32L74.68,40c-.3-.33-.38-.4-.38-.32m-44.13.4c0,.2,0,.29,0,.18a.77.77,0,0,0,0-.37c0-.1,0,0,0,.19m34.61,0a2.26,2.26,0,0,0,.42.38s-.11-.17-.31-.38a2.44,2.44,0,0,0-.42-.37s.11.17.31.37M31.35,41.48c0,.26,0,.37,0,.24a1.93,1.93,0,0,0,0-.48c0-.14,0,0,0,.24m35,.13a5.24,5.24,0,0,0,.51.51c.08,0,0-.1-.48-.54l-.51-.48.48.51m-36.31.19c0,.26,0,.37,0,.24a1.29,1.29,0,0,0,0-.48c0-.13,0,0,0,.24m4.27,1.28c0,.21,0,.29,0,.19a.81.81,0,0,0,0-.38c0-.1,0,0,0,.19m-3.1.32c0,.27,0,.37.05.24a1.29,1.29,0,0,0,0-.48c0-.13-.05,0-.05.24m-1.39.48c0,.24,0,.32,0,.19a1,1,0,0,0,0-.43c0-.1,0,0,0,.24m36.75-.12a3.85,3.85,0,0,0,.35.34l.34.32L67,44.07c-.29-.32-.38-.4-.38-.31m-31.08.92c0,.21,0,.29,0,.19a.77.77,0,0,0,0-.37c0-.11,0,0,0,.18m-4.39.11c0,.21,0,.29.05.19a.81.81,0,0,0,0-.38c0-.1-.05,0-.05.19m-4.06.43c0,.2,0,.29.05.19a.81.81,0,0,0,0-.38c0-.1-.05,0-.05.19m50.17.32c-.07.1,0,.11.05.05s.12,0,.08.08a.41.41,0,0,0,0,.29c.06.1.1.09.14,0s-.18-.58-.29-.39M31,46.07c0,.33,0,.46,0,.3a2.91,2.91,0,0,0,0-.59c0-.16,0,0,0,.29m-1.28.54c0,.44,0,.62.05.4a5.34,5.34,0,0,0,0-.8c0-.22-.05,0-.05.4M34,46.34c0,.24,0,.32,0,.19a1.24,1.24,0,0,0,0-.43c0-.1,0,0,0,.24m-5.77.48c0,.21,0,.29.05.19a1.15,1.15,0,0,0,0-.37c0-.11-.05,0-.05.18M26.75,48c0,.23,0,.31.05.18a1,1,0,0,0,0-.43c0-.1-.05,0-.05.25m8.45.32c0,.29,0,.4,0,.24a2.43,2.43,0,0,0,0-.54c0-.13,0,0,0,.3m-1.28.37c0,.38,0,.54,0,.35a2.73,2.73,0,0,0,0-.7c0-.19,0,0,0,.35m-6,.91c0,.23,0,.32.05.18a1.17,1.17,0,0,0,0-.42c0-.11,0,0,0,.24m1.73,2.51c0,1.44,0,2,0,1.31s0-1.9,0-2.62,0-.13,0,1.31m-3-1.71c0,.27,0,.37,0,.24a1.29,1.29,0,0,0,0-.48c0-.13,0,0,0,.24m7.16.75c0,.26,0,.37,0,.24a1.93,1.93,0,0,0,0-.48c0-.13,0,0,0,.24m-6,.8c0,.41,0,.57,0,.35a3.13,3.13,0,0,0,0-.75c0-.19,0,0,0,.4m49.59-.32c0,.23,0,.32,0,.19a1,1,0,0,0,0-.43c0-.1,0,0,0,.24m-50.88.32c0,.29,0,.4.05.24a2.34,2.34,0,0,0,0-.53c0-.14-.05,0-.05.29m4.39.37c0,.5,0,.71,0,.46a4.61,4.61,0,0,0,0-.91c0-.25,0,0,0,.45m4.17.33c0,.67,0,.95,0,.61s0-.89,0-1.23,0-.06,0,.62m43.61-.49c0,.36,0,.49.05.3a3.52,3.52,0,0,0,0-.65c0-.16-.05,0-.05.35m-45,.75c0,.47,0,.65,0,.4a6,6,0,0,0,0-.85c0-.22,0,0,0,.45m-7.27.54c0,.29,0,.4,0,.24a1.63,1.63,0,0,0,0-.54c0-.13-.05,0,0,.3m52.27.42c0,.36,0,.49.05.3a3.41,3.41,0,0,0,0-.64c0-.17-.05,0-.05.34m-1.29.54c0,.23,0,.32,0,.18a1,1,0,0,0,0-.42c0-.1,0,0,0,.24m-49.7.75c0,.41,0,.56.05.34a3.73,3.73,0,0,0,0-.75c0-.19,0,0,0,.41m-1.37,3.58c0,1.91,0,2.69,0,1.74s0-2.52,0-3.48,0-.17,0,1.74m3.4-1.6c0,.38,0,.53.05.34a4,4,0,0,0,0-.69c0-.19-.05,0-.05.35m-2.12,1.76c0,1.17,0,1.67,0,1.1s0-1.53,0-2.14,0-.14,0,1M31,57.62c0,.26,0,.37,0,.24a1.93,1.93,0,0,0,0-.48c0-.13,0,0,0,.24m43.09,2c0,.76,0,1.06,0,.66s0-1,0-1.39,0,0,0,.73m-39,.1c0,.59,0,.82,0,.51a9.54,9.54,0,0,0,0-1.07c0-.28,0,0,0,.56m-1.39-.26c0,.38,0,.54,0,.34a4,4,0,0,0,0-.69c0-.19,0,0,0,.35m41.78-.26c0,.48.21.92.36.68.05-.09,0-.11,0-.06s-.19-.11-.27-.74c0-.25,0-.23-.05.12m-44.25.63c0,.24,0,.32.05.19a1,1,0,0,0,0-.43c0-.1-.05,0-.05.24m2.57,1.07c0,.24,0,.32,0,.19a1.22,1.22,0,0,0,0-.43c0-.1,0,0,0,.24M30.06,61c0,.21,0,.29.05.19a.81.81,0,0,0,0-.38c0-.1-.05,0-.05.19m-2.34,1.23c0,.35,0,.48,0,.29a2.28,2.28,0,0,0,0-.64c0-.16,0,0,0,.35m6.2.59c0,.32,0,.45,0,.29a1.94,1.94,0,0,0,0-.59c0-.16,0,0,0,.3m1.28.48c0,.23,0,.32,0,.18a1.17,1.17,0,0,0,0-.42c0-.11,0,0,0,.24m-8.77.27c0,.26,0,.37.05.24a1.29,1.29,0,0,0,0-.48c0-.14-.05,0-.05.24m1.4,1.28c0,.32,0,.45,0,.29a1.88,1.88,0,0,0,0-.58c0-.17,0,0,0,.29M34,64.78c0,.21,0,.29,0,.19a.77.77,0,0,0,0-.37c0-.11,0,0,0,.18m-7.48.11c0,.2,0,.29.05.19a1.21,1.21,0,0,0,0-.38c0-.1-.05,0-.05.19m.11,1.23c0,.23,0,.32,0,.18a1,1,0,0,0,0-.42c0-.11-.05,0,0,.24m8.87.16c0,.2,0,.29,0,.19a.81.81,0,0,0,0-.38c0-.1,0,0,0,.19m-7.59.64c0,.21,0,.29,0,.19a.81.81,0,0,0,0-.38c0-.1,0,0,0,.19M26.75,68.1c0,.2,0,.29.05.18a.77.77,0,0,0,0-.37c0-.1-.05,0-.05.19M71.41,68c-.14.16-.13.17,0,.11s.24,0,0,.24-.11.13.05,0,.27-.55.11-.54a.57.57,0,0,0-.24.18m6.09,1.93-.37.4.4-.37c.37-.34.45-.43.37-.43a3.25,3.25,0,0,0-.4.4m-2.78,1a2,2,0,0,0-.41.48,5.09,5.09,0,0,0,.52-.48,2.64,2.64,0,0,0,.42-.48,3.23,3.23,0,0,0-.53.48m1.07.77-.37.4.4-.36c.37-.35.45-.44.37-.44a3.25,3.25,0,0,0-.4.4m-40,2.64a.36.36,0,0,1-.13.31c-.08,0-.06.06,0,.07s.19-.08.19-.32a.66.66,0,0,0-.05-.32s-.06.12-.06.26M35.12,76a4.6,4.6,0,0,0,.58.53,3.21,3.21,0,0,0-.48-.53,4.26,4.26,0,0,0-.58-.54,3.48,3.48,0,0,0,.48.54M64.6,77.53c-.28.13-.32.29-.08.29s.14,0,.1-.1,0-.11.11-.11.14,0,.1.12,0,0,.15,0c.37-.23,0-.38-.38-.17m-17.86.26a.81.81,0,0,0,.38,0c.1,0,0-.05-.19-.05s-.29,0-.19.05m-2.62.11a6.91,6.91,0,0,0,.91,0c.25,0,0,0-.45,0s-.71,0-.46,0m-2.19,1.17a.81.81,0,0,0,.38,0c.1,0,0,0-.19,0s-.29,0-.19,0m5.19,0a1.23,1.23,0,0,0,.43,0c.1,0,0,0-.25,0s-.32,0-.18,0M39,80a3.85,3.85,0,0,0,.35.34l.34.32-.31-.35C39.11,80,39,79.91,39,80M32.5,81.49a2,2,0,0,0,.35.35l.34.31-.31-.34c-.29-.33-.38-.4-.38-.32m-.64,1.2a6.05,6.05,0,0,0,.63.59,3.62,3.62,0,0,0-.53-.59,5,5,0,0,0-.63-.59,4.19,4.19,0,0,0,.53.59m14.72.55a1.29,1.29,0,0,0,.48,0c.14,0,0,0-.24,0s-.37,0-.24,0M39.1,84.42a1,1,0,0,0,.43,0c.1,0,0,0-.24,0s-.32,0-.19,0m4.06,0a1.29,1.29,0,0,0,.48,0c.13,0,0,0-.24,0s-.37,0-.24,0m-3.37,1.39a.81.81,0,0,0,.38,0c.1,0,0,0-.19,0s-.29,0-.19,0m2.73,0a1.29,1.29,0,0,0,.48,0c.13,0,0,0-.24,0s-.37,0-.24,0"/><path id="path4" class="cls-5" d="M0,.16c0,.17.1.2.37.1S.57,0,.27,0,0,.06,0,.16m106.58,0c0,.06.07.1.16.1s.16,0,.16-.1-.07-.11-.16-.11-.16.05-.16.11M41.1,21.7c-.39,0,.15.07,1.39.07,1.44,0,1.82,0,1.29-.07a12.63,12.63,0,0,0-2.68,0M39.23,22c-.32.1-.48.2-.35.2a2.76,2.76,0,0,0,.7-.15l.67-.2c.14,0,.1-.05-.11-.05a3.79,3.79,0,0,0-.91.2m5.56-.16.92.21a5.25,5.25,0,0,0,1.07.15c.51,0-.7-.28-1.67-.36-.32,0-.47,0-.32,0m-6.57.46a.66.66,0,0,1-.36.17c-1.1.24-3.18,2.31-4.16,4.12a17.85,17.85,0,0,0-1,1.92c-.29.71-.32,1,0,.38.42-.9.77-1.61.86-1.77l.21-.42a2.84,2.84,0,0,1,.45-.75,1.51,1.51,0,0,0,.2-.32,13.29,13.29,0,0,1,2.08-2.25,4.53,4.53,0,0,0,.59-.37,3.4,3.4,0,0,1,.83-.44c.4-.1.8-.36.54-.36a.33.33,0,0,0-.24.09m9.3.06a3.62,3.62,0,0,0,.84.22,3.24,3.24,0,0,1,.8.22,1.26,1.26,0,0,0,.55.15c.48,0-1.07-.49-2.25-.7-.23,0-.23,0,.06.11m-7.06.48c-.86.14-2.17.6-2.05.72s.16,0,.29-.07c1.06-.57,5.23-.84,6.66-.44a1.4,1.4,0,0,0,.57.09c.25-.26-4.23-.5-5.47-.3m9.94.33a2.25,2.25,0,0,0,.65.21,1,1,0,0,1,.42.17,1,1,0,0,0,.37.16,2,2,0,0,1,.6.21,2.67,2.67,0,0,0,.59.21.94.94,0,0,1,.4.17.58.58,0,0,0,.36.13c.12,0-.3-.24-1.35-.62-.36-.13-.73-.28-.83-.33A10.83,10.83,0,0,0,50.06,23c-.05,0,.11.09.34.21m-3.88.11a2.57,2.57,0,0,1,.71.2,1.24,1.24,0,0,0,.47.11c.15,0,0-.08-.34-.21a3,3,0,0,0-1-.2c-.35,0-.35,0,.12.1m-9,.65a7.21,7.21,0,0,0-2.14,2.22c0,.07,0,.12-.1.12s-.13.09-.16.21a1.19,1.19,0,0,1-.2.35,3.46,3.46,0,0,0-.6,1.07c0,.07.17-.16.38-.51a9.16,9.16,0,0,1,3-3.39c.35-.22.57-.4.48-.4a2.21,2.21,0,0,0-.63.33m11.12-.12c1.41.43,3.13,1,3.47,1.17.52.23,1.42.62,1.77.76.2.08,1.12.53,2,1L58,27.82a11.09,11.09,0,0,1,1.66,1.06,1.13,1.13,0,0,0,.35.19c.16.06.29.16.29.22s-.47.13-.82-.05a29,29,0,0,0-3.19-1.39c-.23-.07-.52-.17-.63-.22s-.18-.05-.13,0a1.27,1.27,0,0,0,.53.23,6.06,6.06,0,0,1,.82.29l.8.36,1.13.51,1.22.55a7.45,7.45,0,0,1,1.54.78c0,.08.44.11.44,0a6.84,6.84,0,0,0-2-1.51,4.24,4.24,0,0,1-.8-.49,12.46,12.46,0,0,0-1.76-1c-1.3-.72-3-1.56-4.38-2.13l-.7-.31a4.76,4.76,0,0,0-.69-.24,1.52,1.52,0,0,1-.44-.16,7.24,7.24,0,0,0-1-.37c-.5-.15-1.05-.32-1.23-.39a4.37,4.37,0,0,0-.69-.16c-.24,0-.13,0,.32.18m5.61.85a1.33,1.33,0,0,0,.44.22c.14,0,3.88,1.88,4.1,2.07a3.24,3.24,0,0,0,.43.26c.15.07.46.25.7.4s.5.3.59.34a1.64,1.64,0,0,1,.26.16c.06.05.74.5,1.5,1a14.87,14.87,0,0,1,1.43,1,.14.14,0,0,0,.13.1.68.68,0,0,1,.28.17c.11.09.55.44,1,.77a43.18,43.18,0,0,1,5.17,4.62c.54.56,1.84,1.89,2.9,2.95a37.44,37.44,0,0,1,3.16,3.36c.26.32.53.63.6.69s1.64,2.17,1.64,2.24.27.44.59.92a5.16,5.16,0,0,1,.59,1,.25.25,0,0,0,.1.21,11.19,11.19,0,0,1,.7,1.3,9.09,9.09,0,0,0,.64,1.2,11.62,11.62,0,0,0-.8-1.8c-.06-.09-.22-.41-.37-.72a37.6,37.6,0,0,0-6.27-8c-5.16-5.26-5.62-5.71-7.1-6.9-.47-.38-.92-.76-1-.84a61.94,61.94,0,0,0-7.86-5.16l-1.5-.75c-2-1-2.78-1.34-2-.84m-9.73,1.23a7.69,7.69,0,0,0-4.44,1.89,1.51,1.51,0,0,1-1.12.44l-.64,0,.66,0c.56,0,.69,0,1-.26C42,26.28,44,25.78,48.48,26l1.39.07-1.23-.14a16.24,16.24,0,0,0-4.12,0m5.52.26a4.15,4.15,0,0,0,1,.22,5,5,0,0,1,.95.21,2.75,2.75,0,0,0,.66.17,2.81,2.81,0,0,1,.77.23,1.27,1.27,0,0,0,.48.14c.48,0-1.19-.54-2.54-.8s-1.45-.29-1.27-.17m-5.66.87a3,3,0,0,0-.8.19,1.68,1.68,0,0,1-.49.17c-1.67.31-2.06,1.19-.57,1.3.85.06.78,0-.11-.11-1.53-.18,0-1.14,2.27-1.45a18.74,18.74,0,0,1,1.88-.09,21,21,0,0,1,5.34.68c.27.06.29.05.13-.06a5.41,5.41,0,0,0-1-.26l-1.3-.26a34.59,34.59,0,0,0-5.33-.11m10.14.32a2.62,2.62,0,0,0,.69.2c.12,0,0-.09-.32-.21-.68-.27-1-.26-.37,0m-2.08.5c.3.07,2.45.8,2.88,1l.86.33a46.89,46.89,0,0,1,5.57,2.64,1.84,1.84,0,0,0,.43.25,57.55,57.55,0,0,1,5.66,3.66c.83.61,1.31,1,3,2.49a28.66,28.66,0,0,1,4.51,6.52c.34.7.71,1.47.82,1.71s.21.34.21.24a3.61,3.61,0,0,0-.35-.85,5.17,5.17,0,0,1-.43-1c0-.16-.12-.29-.17-.29s-.13-.14-.17-.32a.83.83,0,0,0-.22-.44.42.42,0,0,1-.15-.25,5.86,5.86,0,0,0-.59-1c-.32-.49-.59-.91-.59-.94a6.83,6.83,0,0,0-.83-1.1,1.45,1.45,0,0,1-.24-.33,12.41,12.41,0,0,0-2.78-3l-1.23-1a1.81,1.81,0,0,0-.54-.38.71.71,0,0,1-.31-.22c-.11-.12-.23-.22-.28-.22a1,1,0,0,1-.36-.25,6.83,6.83,0,0,0-.67-.52l-1.18-.79a18.12,18.12,0,0,0-1.73-1.08.56.56,0,0,1-.22-.14,5.09,5.09,0,0,0-.69-.42l-1.39-.75c-1.1-.6-3.08-1.57-4-1.93l-.73-.31A3.63,3.63,0,0,0,56,29a3,3,0,0,1-.55-.21,2,2,0,0,0-.65-.21.67.67,0,0,1-.32-.1,7,7,0,0,0-2-.64c-.22,0-.22,0,0,.06m-18.37.53c-.39.75-.19,1.2.39.9a13.7,13.7,0,0,1,3.17-.87l.48-.08-.59,0a9.31,9.31,0,0,0-2.66.64c-1,.37-1.09.28-.7-.49.1-.18.15-.35.12-.38s-.13.08-.21.25m9.36.46a3.19,3.19,0,0,0,.86.23,11.88,11.88,0,0,1,1.2.27l1.28.37c.41.13.9.29,1.08.37a1.58,1.58,0,0,0,.51.15.29.29,0,0,1,.22.1,1.07,1.07,0,0,0,.46.22,7.31,7.31,0,0,1,.72.27l.91.38c.65.26,4.51,2.15,4.6,2.25s.62.39,1.32.8a23.73,23.73,0,0,1,2.47,1.57,5.68,5.68,0,0,0,.79.51.6.6,0,0,1,.28.21.62.62,0,0,0,.34.21c.08,0,.14,0,.14.09a4.67,4.67,0,0,0,.83.69A15.74,15.74,0,0,1,63,38.78c.12.11.47.41.8.67a44.7,44.7,0,0,1,3.25,3.08A21.48,21.48,0,0,1,69.28,45c.36.46.69.86.73.89s.3.4.59.83a3.23,3.23,0,0,0,.61.77.09.09,0,0,1,.09.09,13.17,13.17,0,0,0,.7,1.26,25.85,25.85,0,0,1,2,4.11c.09.32.36.74.36.55a.74.74,0,0,0-.1-.31c-.06-.11-.23-.5-.38-.89A29.82,29.82,0,0,0,71.68,48,44,44,0,0,0,63,38.63,55,55,0,0,0,55,33.18a53.11,53.11,0,0,0-5.64-2.66c-.23-.08-.69-.24-1-.37A31.25,31.25,0,0,0,44.42,29l-.86-.16c-.26-.06-.29,0-.13.05m-11.17.92a5.33,5.33,0,0,0-.23.82,2.48,2.48,0,0,1-.42.85,16.49,16.49,0,0,0-2.21,3.93.47.47,0,0,1-.11.29,2,2,0,0,0-.26.63,7.43,7.43,0,0,1-.23.73c-.05.14,0,.18,0,.13a.82.82,0,0,0,.19-.41,5,5,0,0,1,.27-.8,2.76,2.76,0,0,0,.2-.56,23.81,23.81,0,0,1,1.3-2.57,1.76,1.76,0,0,0,.23-.38,3.1,3.1,0,0,1,.37-.53,2.86,2.86,0,0,0,.72-1.23,3.58,3.58,0,0,1,.24-.72.84.84,0,0,0,.11-.47c0-.07-.11.06-.21.29M37,29.56a3.61,3.61,0,0,1-.73.15,1.47,1.47,0,0,0-.54.15l-.82.4a5.51,5.51,0,0,0-1.65,1.14c-.44.43-.46.48-.76,2-.07.33-.19.81-.26,1.07A8.14,8.14,0,0,0,32,35.6a11.18,11.18,0,0,1-.23,1.33,5.74,5.74,0,0,0-.13,1.18c0,.29,0,.41.05.27.51-3.57,1.08-6.29,1.41-6.68a6.74,6.74,0,0,1,3.87-2c1.34-.26,1.45-.15.86.85a20.19,20.19,0,0,0-1.24,2.62c-.57,1.39-1.28,3.88-.86,3a3.25,3.25,0,0,0,.23-.81,2.15,2.15,0,0,1,.22-.69.86.86,0,0,0,.15-.4,2.62,2.62,0,0,1,.19-.65c.11-.25.32-.74.46-1.09a2.57,2.57,0,0,1,.34-.68.15.15,0,0,0,.08-.12,3.31,3.31,0,0,1,.47-1c.81-1.33.6-1.6-.9-1.17m2.87.15a13,13,0,0,0-1.53,2.41c-.78,1.74-1,2.18-.89,2.26s.14-.18.25-.46a15.4,15.4,0,0,1,2.19-4l.38-.41,1.28.18a18.27,18.27,0,0,1,3.12.66,1.7,1.7,0,0,0,.63.11c.07-.08-1-.4-1.3-.4a.54.54,0,0,1-.33-.1,17.85,17.85,0,0,0-3-.51c-.49,0-.57,0-.82.28m20.8-.25c.23.09.21.26,0,.26s-.36-.14-.25-.25.08-.09.29,0M46,30.66a8,8,0,0,0,1.69.5,5.77,5.77,0,0,0-1.91-.65c-.29,0-.24,0,.22.15m1.92.63.51.22c.2.09.38.14.41.11s-.65-.41-.88-.4-.16,0,0,.07m1.5.59.8.36c.18.07.71.31,1.18.53l1.07.49c.11.05.43.22.69.37s.91.51,1.44.79a50.22,50.22,0,0,1,6.36,4.16c1.09.84,2.07,1.62,2.14,1.71s.3.28.59.54A37.24,37.24,0,0,1,72,51.1c.08.15.22.45.33.67s.22.38.24.35a13,13,0,0,0-1-2A38.09,38.09,0,0,0,69,46.18l-.36-.43a33.39,33.39,0,0,0-2.84-3.1,38.49,38.49,0,0,0-3-2.78l-.64-.53a4.52,4.52,0,0,0-.62-.47,1,1,0,0,1-.26-.24.3.3,0,0,0-.24-.15c-.08,0-.15,0-.15-.09a3.62,3.62,0,0,0-.78-.62,13.16,13.16,0,0,1-1.32-.94,1.39,1.39,0,0,0-.45-.27.17.17,0,0,1-.14-.08,5.39,5.39,0,0,0-1-.67,8.21,8.21,0,0,1-.86-.54,10.64,10.64,0,0,0-1-.61A1.3,1.3,0,0,1,55,34.5c-.28-.23-3.89-2-5.33-2.63-.67-.29-.91-.28-.28,0m-12.17,3c-.24.69-.25,1.11,0,.46a2.4,2.4,0,0,0,.19-.72c0-.08-.09,0-.17.26M30.45,36a6.83,6.83,0,0,0-.36.87,3,3,0,0,1-.16.48,12.67,12.67,0,0,0-.59,1.93,8.08,8.08,0,0,1-.22.88A3.21,3.21,0,0,0,29,41v.35l.09-.38.31-1.28c.76-3.29,1.42-4.19,1.07-1.47-.07.54-.14,1.23-.16,1.52l0,.54.11-.43c.06-.23.18-1.08.27-1.87s.19-1.62.22-1.84c.1-.72-.1-.77-.41-.1m6.29.62a4.78,4.78,0,0,0-.18.9,1.6,1.6,0,0,1-.16.53,1.61,1.61,0,0,0-.16.59,5.28,5.28,0,0,1-.17,1,8.45,8.45,0,0,0-.2,1.39c0,.41,0,.6,0,.42s.1-.56.16-.85.17-.92.25-1.39a21,21,0,0,1,.56-2.37,2.18,2.18,0,0,0,.12-.69c0-.07-.13.15-.23.51m-1.25.18a2.74,2.74,0,0,1-.16.71,2.36,2.36,0,0,0-.15.74c0,.2,0,.12.16-.26a3.5,3.5,0,0,0,.22-1.44s-.07.11-.07.25m-7,1.14a2.6,2.6,0,0,0-.16.76c.06.17.43-1,.39-1.23s-.13.12-.23.47m6.43,1.61a51.84,51.84,0,0,0-.79,6.35c0,.57,0,.6.06.22s.14-1.13.21-2a16.93,16.93,0,0,1,.21-1.87,7.08,7.08,0,0,0,.17-1.12,8.7,8.7,0,0,1,.23-1.4,2.9,2.9,0,0,0,.12-.85c0-.14-.11.15-.21.65m-3.43-.22-.18,1.18a9.71,9.71,0,0,0-.09,1.55v1l.07-1.18a15.21,15.21,0,0,1,.21-1.76,4.05,4.05,0,0,0,.1-1c0-.33-.05-.31-.12.21m-3.42.18c-.3,1-.62,3-.36,2.2A5.53,5.53,0,0,0,28,40.65a4.11,4.11,0,0,1,.22-1,1.24,1.24,0,0,0,.13-.57c0-.13-.11,0-.22.41m2.08,1.58c0,.42-.1,1.38-.18,2.14a22.53,22.53,0,0,0-.14,2.46v1.07l.08-1.23c0-.68.13-1.78.2-2.46a16.53,16.53,0,0,0,.09-2l0-.74,0,.74m-1.39.82a8.26,8.26,0,0,0-.18,1.32c0,.41,0,.58,0,.38s.12-.72.21-1.13a3.36,3.36,0,0,0,.13-1c0-.11-.1.07-.17.38m6.85.63a15.44,15.44,0,0,0-.18,2.08L35.4,46l.09-1.17c0-.65.15-1.49.22-1.88a4.16,4.16,0,0,0,.09-.91c0-.11-.1.1-.17.49m-8.14.05a7.5,7.5,0,0,1-.17,1.07,5.69,5.69,0,0,0-.15,1.18c0,.3,0,.39,0,.21s.12-.71.21-1.18a5.53,5.53,0,0,0,.12-1.28l0-.43,0,.43m3.59,1a146.06,146.06,0,0,0,0,16.09l.09.37V59.6a8.35,8.35,0,0,0-.1-1.18c-.16-1.05-.15-11.91,0-13.45.13-1.28.11-2.24,0-1.41m-2.72,1.12c-.06.33-.17,1.12-.24,1.77s-.16,1.46-.21,1.82a16.79,16.79,0,0,0-.09,1.81v1.18l.08-1.44c.05-.79.14-1.65.19-1.92a14.51,14.51,0,0,0,.17-1.5,11.92,11.92,0,0,1,.18-1.46,2.07,2.07,0,0,0,.07-.64c0-.11-.1.06-.16.38m48.5.21a.23.23,0,0,0,.11.17.55.55,0,0,1,.11.38,1.82,1.82,0,0,0,.21.71,1.76,1.76,0,0,1,.21.57.49.49,0,0,0,.1.27,8.92,8.92,0,0,1,.59,2.13c.08.41.2.92.26,1.12l.12.38,0-.38a13.64,13.64,0,0,0-.44-2.13c-.42-1.32-.73-2.21-.81-2.37s0-.32.27-.06a12.7,12.7,0,0,1,1.14,1.69l.94,1.77a8.56,8.56,0,0,1,.55,1.27c0,.22.42,1,.42.74a.81.81,0,0,0-.16-.42.71.71,0,0,1-.16-.35,16.35,16.35,0,0,0-1.39-2.81.12.12,0,0,1-.11-.13,3,3,0,0,0-.37-.72,7.2,7.2,0,0,1-.44-.78c0-.1-.11-.19-.16-.19s-.16-.14-.25-.32-.24-.32-.33-.32a.16.16,0,0,1-.15-.16c0-.09,0-.16-.11-.16a.11.11,0,0,0-.11.1M27,46c-.82,6.77-.81,18.54,0,23.63l.08.53,0-.53a4.82,4.82,0,0,0-.1-1c-.61-2.48-.6-17.8,0-21.55A6.53,6.53,0,0,0,27.13,46l0-.46L27,46m8.22.27c-.4,1.39-.38,17.77,0,18.71.09.21.11.16.07-.27C35,61.5,35,49.35,35.28,47.29c.13-.93.11-1.5,0-1M34,47.58c0,.49-.07,2.25-.16,3.89a69.85,69.85,0,0,0,0,9.16c.24,3.82.25,3.93.2,2.17,0-.88-.07-2.89-.11-4.47s0-4.6.07-7.19c.08-2.38.11-4.35.07-4.39a2.43,2.43,0,0,0-.07.83m42.51-.44c0,.15.16.61.28,1s.27,1.08.35,1.5.2.94.26,1.17l.11.43,0-.43A12.64,12.64,0,0,0,77,48.44a1.2,1.2,0,0,1-.11-.46,2,2,0,0,0-.22-.68c-.12-.24-.18-.31-.14-.16M29.77,51.9c0,2.53,0,3.55,0,2.26s0-3.35,0-4.59,0-.2,0,2.33M81.25,50a1.19,1.19,0,0,0,.15.48,9.82,9.82,0,0,1,.64,2c.18.78.36,1.26.37,1a9.43,9.43,0,0,0-.55-2.05c-.28-.92-.61-1.68-.61-1.41m-2.64,3c0,1.75,0,2.05.06,1.18a23.22,23.22,0,0,0,0-2.36c0-.87-.06-.57-.06,1.18m-1.06,0c0,.94,0,1.31,0,.82s0-1.25,0-1.71,0,0,0,.89m3.06-1.44a3.7,3.7,0,0,0,.21.74c.13.38.2.5.2.33s-.4-1.34-.41-1.07m-53,1.55c-.13,2-.11,10.12,0,11.22l.11.86v-.65c0-.35,0-1.68-.11-3a55.38,55.38,0,0,1,0-5.93c.15-3.75.12-5.14-.05-2.54m45-.69a.44.44,0,0,0,.11.27,12.31,12.31,0,0,1,.58,1.5c.27.78.48,1.25.48,1.07a1.33,1.33,0,0,0-.13-.53,4.54,4.54,0,0,1-.26-.66c-.31-1.06-.78-2-.78-1.65m8.5.74c0,.15.14.63.22,1.07l.14.8,0-.78a3.3,3.3,0,0,0-.22-1.07L81,52.86l.07.27m-6.68.64a3.56,3.56,0,0,0,.21.75c.11.32.21.49.21.37a2.87,2.87,0,0,0-.21-.74c-.11-.3-.21-.47-.21-.38m8,.32a3.76,3.76,0,0,0,.14,1,12.32,12.32,0,0,1,0,4,3.41,3.41,0,0,0-.14,1c0,.28,0,.33,0,.17s.12-.56.2-.92a10.94,10.94,0,0,0,.16-2.18,11,11,0,0,0-.16-2.19l-.2-.91c0-.2,0-.18,0,.1M77.25,55.7a12.07,12.07,0,0,1-.67,2.43,1.86,1.86,0,0,0-.14.48c0,.21.42-.7.42-.94a.54.54,0,0,1,.11-.33,2.32,2.32,0,0,0,.21-.74,8.91,8.91,0,0,1,.23-1,1.93,1.93,0,0,0,.08-.64c0-.14-.13.2-.24.76m4.26,1.39c0,1.34,0,1.94.1,1.78a9.63,9.63,0,0,0,.1-1.78,9.69,9.69,0,0,0-.1-1.79c-.06-.15-.1.44-.1,1.79m-6.64-1.61c0,.21.1.56.16.79a21.68,21.68,0,0,1,.24,2.22l.13,1.79.24-.13a2.74,2.74,0,0,0,.79-1.28c0-.07-.15.15-.33.5-.42.8-.55.69-.65-.55A17.42,17.42,0,0,0,75,55.59c-.15-.45-.16-.45-.12-.11m3.51.43a12.88,12.88,0,0,1-.81,2.83,1.33,1.33,0,0,0-.17.5.5.5,0,0,1-.16.3.54.54,0,0,0-.16.36c0,.16.07.07.22-.25s.3-.63.38-.81a4,4,0,0,0,.25-.69c.06-.21.17-.66.27-1s.22-.82.28-1a1.46,1.46,0,0,0,.07-.58c0-.12-.09,0-.17.38m-4.61-.1a1.51,1.51,0,0,0,.1.49,7.25,7.25,0,0,1,.21,1.17l.1.84,0-1c0-.79-.36-2.13-.37-1.54M29.84,57.87a10.91,10.91,0,0,0,.1,1.55c.06.39.15,1.19.2,1.78l.08,1.07v-.8a11,11,0,0,0-.1-1.61c-.06-.44-.15-1.25-.19-1.81l-.08-1,0,.84M74.23,59.6c0,.7,0,1,0,.61s0-1,0-1.29,0,0,0,.68m7.08.22a18.85,18.85,0,0,1-1,3.2,22.27,22.27,0,0,1-3.22,5.35,36,36,0,0,1-4.2,4.25c-.33.24-.72.56-.87.7s-1.47,1.11-2,1.46l-.66.43c-.26.18-1,.6-1.55.94l-1.23.71c-1.41.84-3,1.33-1.93.59a40.06,40.06,0,0,0,6-5.65,9.56,9.56,0,0,1,.63-.81,3.79,3.79,0,0,0,.31-.39l.72-1.11a34.36,34.36,0,0,0,1.93-3.69c.42-.94.75-2.15.37-1.35a2.41,2.41,0,0,0-.22.61,24.79,24.79,0,0,1-1.75,3.68c-.14.2-.47.72-.75,1.14a31.23,31.23,0,0,1-6.19,6.61c-.17.12-.5.39-.75.61a2.17,2.17,0,0,1-.53.4,1.39,1.39,0,0,0-.41.32c-.38.38-.18.58.28.28a1.05,1.05,0,0,1,.42-.17,2.44,2.44,0,0,0,.68-.31,5.82,5.82,0,0,1,.75-.38,1.18,1.18,0,0,0,.37-.2,5.23,5.23,0,0,1,.72-.43,13.7,13.7,0,0,0,1.64-1,5.88,5.88,0,0,1,.67-.4,5.07,5.07,0,0,0,.79-.54s.33-.24.67-.46a5.74,5.74,0,0,0,.8-.6c.11-.1.55-.47,1-.82a22.62,22.62,0,0,0,2.39-2.16l1-1a14.49,14.49,0,0,0,1-1.14c.23-.32.51-.68.62-.8l.34-.43a5.26,5.26,0,0,0,.67-1.1.15.15,0,0,1,.08-.13,16.5,16.5,0,0,0,1.8-3.56,3,3,0,0,1,.22-.59,1.24,1.24,0,0,0,.14-.46,1.36,1.36,0,0,1,.16-.5,4.58,4.58,0,0,0,.24-1.72,2.33,2.33,0,0,0-.12.6M31.23,60.93a10.59,10.59,0,0,0,.19,1.77c.14.66.21.84.21.57a2.28,2.28,0,0,0-.1-.7,9.22,9.22,0,0,1-.2-1.38l-.08-1.06,0,.8m45.37,0c-.21.42-.7,1.25-1.08,1.84a6.06,6.06,0,0,0-.65,1.12s.12-.06.21-.19.37-.59.63-1A14.24,14.24,0,0,0,77,60.22a2.28,2.28,0,0,0-.44.71m5.62,0a8,8,0,0,0-.23.86,10.61,10.61,0,0,1-.58,1.66c-.5,1-1.07,2.19-1.29,2.56s-.29.5-.33.59a16.62,16.62,0,0,1-1.05,1.51c-.12.15-.29.38-.38.52s-.27.36-.41.52l-.59.7A34.94,34.94,0,0,1,74.19,73l-1,.9-.36.27c-.13.09-.46.33-.73.54a10.16,10.16,0,0,1-1.72,1.17.27.27,0,0,0-.19.14,1.17,1.17,0,0,1-.35.26,8.73,8.73,0,0,0-1.17.73c-.27.17-1,.55-1.51.83a16.83,16.83,0,0,0-2.64,1.42.91.91,0,0,0,.41-.13c.42-.19.43-.19,1.49-.76l1.39-.74c.32-.17.81-.45,1.08-.63l1.2-.75a3.15,3.15,0,0,0,.71-.5s0-.08.12-.08a28.38,28.38,0,0,0,2.82-2.08l.53-.48a31.06,31.06,0,0,0,5.13-5.69,21,21,0,0,0,1.23-2.06,5.9,5.9,0,0,1,.3-.57,17.89,17.89,0,0,0,1.2-3,2.81,2.81,0,0,1,.17-.58,1.57,1.57,0,0,0,.13-.61c0-.12-.09,0-.18.28m-8.16.73a4.76,4.76,0,0,1-.66,2.17,32.77,32.77,0,0,1-5.54,5.47c-.19.13-.64.46-1,.73a18.36,18.36,0,0,1-2.09,1.38c-.14.08-.58.34-1,.59s-.93.56-1.21.7-.48.27-.43.28a7.53,7.53,0,0,0,1.8-.93c1.19-.72,1.39-.84,1.63-1s.24-.16.24-.22a.13.13,0,0,1,.14-.11,1.91,1.91,0,0,0,.56-.37A2.31,2.31,0,0,1,67,70a22.8,22.8,0,0,0,1.84-1.39c.09-.09.39-.35.67-.59a24.75,24.75,0,0,0,2.86-2.83l.82-1a2.68,2.68,0,0,0,.67-1.1,6.74,6.74,0,0,0,.27-2.2,2.57,2.57,0,0,0-.11.73M30.3,62.8c.16,1.7.67,4.36.69,3.62a2.93,2.93,0,0,0-.14-.81,10,10,0,0,1-.26-1.52,10.73,10.73,0,0,0-.23-1.39c-.1-.31-.1-.3-.06.1m1.36,1.39a4.19,4.19,0,0,0,.09.86c.06.23.18.79.26,1.23A21.71,21.71,0,0,0,33.39,71c.92,2.36,2.85,5,2.85,3.85a.32.32,0,0,0-.1-.26,1.17,1.17,0,0,1-.16-.51,2.88,2.88,0,0,0-.22-.73c-.2-.34-.2-.16,0,.38s.2,1,0,1-.16,0-.16-.08a.85.85,0,0,0-.19-.3,13,13,0,0,1-1.74-3,3.12,3.12,0,0,0-.21-.52,2.8,2.8,0,0,1-.21-.52,1.67,1.67,0,0,0-.16-.42,26.16,26.16,0,0,1-1-3.92c-.25-1.54-.41-2.2-.41-1.77m2.5,1.07c.22,2.57,1,6.84,1,5.7a1.58,1.58,0,0,0-.11-.59,19.72,19.72,0,0,1-.53-3.13c-.15-1.35-.44-2.95-.36-2m1.29,1.13c0,1.08.33,2.67.35,2a2.62,2.62,0,0,0-.1-.7,12.44,12.44,0,0,1-.21-1.4l-.09-1,.05,1.13m-7.6.37A11.26,11.26,0,0,0,28,68.52a12.18,12.18,0,0,1,.21,1.39,7.85,7.85,0,0,0,.22,1.29c.11.24.11.23.06-.11s-.12-.93-.21-1.6a12.36,12.36,0,0,0-.22-1.41,13.28,13.28,0,0,1-.16-1.44l-.09-1.27,0,1.39M31,67a11.09,11.09,0,0,0,.7,2.58c.33,1.07.89,2.48.74,1.87-.06-.26-.37-1.2-.49-1.49A15.63,15.63,0,0,1,31.38,68c-.24-1-.36-1.34-.37-1m40.74.5a11.11,11.11,0,0,0-1.12.94,17,17,0,0,1-1.36,1.16,7.19,7.19,0,0,0-.59.48,38.73,38.73,0,0,1-4.11,2.79,5.21,5.21,0,0,0-.55.32,8,8,0,0,1-1.4.78,3.81,3.81,0,0,0-.74.37,4.5,4.5,0,0,1-.7.37s-.4.17-.82.36-1.08.49-1.46.65l-1,.45a1.71,1.71,0,0,1-.49.15.66.66,0,0,0-.35.17c-.21.16-.21.16,0,.09l.52-.16c.17-.05.53-.2.8-.32l.71-.32A52.88,52.88,0,0,0,66,72.16a25.48,25.48,0,0,0,2.62-1.88c.21-.18.55-.44.76-.58a10.3,10.3,0,0,0,.85-.7c.43-.4.88-.8,1.26-1.12.18-.15.24-.13.24.1a.47.47,0,0,1-.16.33.42.42,0,0,0-.16.23,23,23,0,0,1-2.3,3.14,35.23,35.23,0,0,1-5.4,4.87,19.44,19.44,0,0,1-2.24,1.5c-.33.19-.79.48-1,.64a20.8,20.8,0,0,1-7.59,3l-.53.08h.5a3.37,3.37,0,0,0,1-.13,7.34,7.34,0,0,1,1-.22,6.23,6.23,0,0,0,1.83-.6,2.23,2.23,0,0,1,.54-.21.38.38,0,0,0,.24-.15.93.93,0,0,1,.41-.22.87.87,0,0,0,.34-.14,10.13,10.13,0,0,1,1-.56,16.23,16.23,0,0,0,1.45-.8A7.8,7.8,0,0,1,61.79,78a5.65,5.65,0,0,0,.59-.35,12.92,12.92,0,0,0,1.09-.8,3.32,3.32,0,0,1,.66-.43.27.27,0,0,0,.19-.13,3.25,3.25,0,0,1,.55-.45,2,2,0,0,0,.52-.45c0-.08.09-.14.14-.14a34.54,34.54,0,0,0,4.38-4.34,13.16,13.16,0,0,1,1-1.35.75.75,0,0,0,.17-.28.41.41,0,0,1,.17-.24A5.34,5.34,0,0,0,72,67.47s-.14,0-.28,0m-35.92,1.6a3.61,3.61,0,0,0,.1.86c.06.23.18.76.27,1.17a2.55,2.55,0,0,0,.27.85c.09.08.1,0,0-.15s-.14-.56-.21-.91-.19-.86-.26-1.12-.13-.63-.16-.81,0-.23-.05.11m-8.62,1.77c.06.82.35,2.1.36,1.61a4.54,4.54,0,0,0-.15-1c-.08-.36-.17-.77-.2-.92s0,0,0,.33m8,.64a4.64,4.64,0,0,0,.2.91c.11.35.21.53.21.4a1.57,1.57,0,0,0-.11-.53,5.46,5.46,0,0,1-.21-.68c-.06-.29-.08-.31-.09-.1m-6.62.37a3.61,3.61,0,0,0,.1.86c.06.23.18.76.26,1.17.17.83.52,1.86.44,1.28,0-.17-.12-.63-.22-1-.28-1.13-.48-2.06-.53-2.41s0-.23-.05.11m3.94-.09a15,15,0,0,0,1.44,2.66c.78,1.17,2.78,3,3.24,3a3,3,0,0,1,.59.75A12.73,12.73,0,0,0,39,79.84c.77.91,3.59,2.7,4,2.56.07,0-.09-.13-.35-.24A11.28,11.28,0,0,1,40.48,81a6.07,6.07,0,0,0-.67-.54,12.33,12.33,0,0,1-1.9-2.24,3.92,3.92,0,0,0-.89-1,10.17,10.17,0,0,1-2.9-2.76,17.54,17.54,0,0,1-1.3-2.25c-.17-.33-.31-.54-.32-.47m4.07.53c0,.3.34,1.3.4,1.13a.72.72,0,0,0-.07-.38,3.67,3.67,0,0,1-.22-.6c-.06-.23-.1-.29-.11-.15m-9,.7a20.25,20.25,0,0,0,1,3.67,9.46,9.46,0,0,0,.61,1.58,3.74,3.74,0,0,1,.23.62,18,18,0,0,0,1.66,2.77,9.56,9.56,0,0,0,4.39,3.17.81.81,0,0,1,.42.16.44.44,0,0,0,.3.09c.16,0,.09-.06-.24-.21a2.36,2.36,0,0,0-.6-.21,1.32,1.32,0,0,1-.44-.17l-.57-.27a7.6,7.6,0,0,1-1.66-1.06A11,11,0,0,1,31,81.38a.29.29,0,0,0-.14-.21.64.64,0,0,1-.21-.25c0-.08-.19-.35-.34-.58a22.32,22.32,0,0,1-1-2c-.22-.52-.52-1.35-.75-2.09-.13-.44-.3-1-.38-1.18a4.74,4.74,0,0,1-.22-.9c-.08-.58-.34-1.4-.35-1.11m33.34.52a11.27,11.27,0,0,1-1.09.53,7.75,7.75,0,0,0-.85.36,39.13,39.13,0,0,1-3.82,1.49c-.75.25-1.23.47-1.1.48a.82.82,0,0,0,.47-.1,4.09,4.09,0,0,1,.67-.26,11.84,11.84,0,0,0,1.62-.59,3.07,3.07,0,0,1,.59-.21.71.71,0,0,0,.35-.16.83.83,0,0,1,.35-.15A27.54,27.54,0,0,0,62,73.12c.09-.15.11-.16-1,.43M37,73.81a12.13,12.13,0,0,0,1,2.53c.49.77,2.73,1.5,4.8,1.54l1,0-.91-.09c-3.67-.36-4.8-1-5.45-3.06-.23-.72-.42-1.15-.43-1m-7.59,1.9a1.6,1.6,0,0,0,.15.53l.27.66c.07.17.14.29.17.26a4.22,4.22,0,0,0-.27-.84c-.17-.44-.31-.71-.32-.61m23.91.79a29.24,29.24,0,0,1-3.55.88,28.29,28.29,0,0,1-3.36.44l-1,.08h1a10.61,10.61,0,0,0,1.76-.13c.43-.09,1.09-.21,1.47-.26A16.16,16.16,0,0,0,52,77a2.4,2.4,0,0,1,.62-.17c.55-.08,1.27-.38.94-.38a.52.52,0,0,0-.29.06m2.73.33c-.45.22-.36.32.11.11l.51-.22c.11,0,.1-.06-.06-.06a1.56,1.56,0,0,0-.56.17m-1,.37a12.06,12.06,0,0,1-2.09.58A7.93,7.93,0,0,0,52,78a3.44,3.44,0,0,1-.8.18,3.89,3.89,0,0,0-1,.22c-.85.33,2-.26,3.48-.73a4.9,4.9,0,0,1,.81-.2,2.37,2.37,0,0,0,.64-.21c.27-.12.38-.21.25-.21a.92.92,0,0,0-.42.12m-25,.19A6.22,6.22,0,0,0,30.72,79c1.25,2.57,3.78,4.71,6,5.08a6,6,0,0,1,.8.22,3.22,3.22,0,0,0,.91.14c.34,0,.4,0,.18-.06a14.61,14.61,0,0,1-4-1.25,7.85,7.85,0,0,1-2.42-2c-.32-.41-.63-.82-.7-.9a27.93,27.93,0,0,1-1.35-2.64c-.06-.17-.12-.24-.12-.16m9.68,1.15c-.17.17,0,.42.47.91a7.88,7.88,0,0,0,3.42,2,4,4,0,0,1,.72.26,1.78,1.78,0,0,0,.63.11h.41L45,81.67a9.94,9.94,0,0,1-4.73-2.36c-.66-.66-.35-.83.84-.44a34.48,34.48,0,0,0,7.85-.06c.61-.14.83-.23.61-.23a6.81,6.81,0,0,0-1.13.18,33.15,33.15,0,0,1-7.18,0c-.87-.24-1.39-.32-1.48-.23m23.93,1-1,.43-.8.37a2.83,2.83,0,0,1-.62.22.75.75,0,0,0-.4.17.4.4,0,0,1-.27.1c-.24,0-1.1.32-1,.39A19.48,19.48,0,0,0,63,80c1-.44,1.38-.64,1.23-.64a2.11,2.11,0,0,0-.59.2M58.74,81.4a12.93,12.93,0,0,1-2,.59,7.87,7.87,0,0,0-1.71.66,2.25,2.25,0,0,1-.6.2.29.29,0,0,0-.24.1.89.89,0,0,1-.41.17,4.6,4.6,0,0,0-.66.2,29,29,0,0,1-4.61,1.4c-.58.09-1.44.36-1.17.37a35,35,0,0,0,4.92-1.29c.28-.13,1.91-.72,2.5-.91a3,3,0,0,0,.59-.24,5,5,0,0,1,.87-.33l1.17-.38c.24-.08.58-.17.77-.21.5-.1,1.4-.47,1.16-.48a1.71,1.71,0,0,0-.54.15m-12.67.54a21.23,21.23,0,0,0,5.35,0l.8-.17-.8.08a45.77,45.77,0,0,1-5.24,0l-.69-.08.58.16m-2.35.7a3.69,3.69,0,0,0,.91.2c.28,0,.26,0-.13-.1a2.86,2.86,0,0,1-.66-.21,1.2,1.2,0,0,0-.46-.11c-.15,0,0,.09.34.22m1.8.36a12.53,12.53,0,0,0,1.78.22c1.79.12,1.64.31-.53.71l-1.34.26c-.44.09-1,.17-1.23.19s-.19,0,.24.05a3.75,3.75,0,0,0,1.12-.13,6.15,6.15,0,0,1,1.1-.21,6.7,6.7,0,0,0,1.12-.23c.27-.09.7-.21.95-.27.93-.23.24-.37-3.3-.69l-.48,0,.57.14m-5.3,1.58a11.55,11.55,0,0,0,2.2,0c1.1-.09,1.06-.1-1.05-.1s-2.12,0-1.15.1m-3.61.59a5.12,5.12,0,0,1,.65.21,2.19,2.19,0,0,0,.81.11c.36,0,.36,0-.07-.06a1.75,1.75,0,0,1-.69-.18,1.31,1.31,0,0,0-.59-.14c-.21,0-.25,0-.11.06m9.27.09a3.12,3.12,0,0,1-.86.17l-.5,0,.43,0A3.61,3.61,0,0,0,46,85.37l.86-.21c.11,0,0,0-.22,0a2.21,2.21,0,0,0-.78.15m-6.8.41a31.4,31.4,0,0,0,4.75,0c.39-.06-.38-.09-2.34-.09s-2.77,0-2.41.1"/></g></g></g></svg>
