<?xml version="1.0" standalone="no"?>
<!DOCTYPE svg PUBLIC "-//W3C//DTD SVG 20010904//EN"
 "http://www.w3.org/TR/2001/REC-SVG-20010904/DTD/svg10.dtd">
<svg version="1.0" xmlns="http://www.w3.org/2000/svg"
 width="280.000000pt" height="280.000000pt" viewBox="0 0 280.000000 280.000000"
 preserveAspectRatio="xMidYMid meet">
<metadata>
Created by potrace 1.10, written by Peter Selinger 2001-2011
</metadata>
<g transform="translate(0.000000,280.000000) scale(0.100000,-0.100000)"
fill="#ff9900" stroke="none">
<path d="M12 1393 c1 -774 5 -1338 9 -1263 4 74 8 697 8 1383 0 687 1 1251 4
1253 2 2 623 4 1380 4 913 0 1378 3 1382 10 4 7 -455 10 -1389 10 l-1396 0 2
-1397z"/>
<path d="M2785 1395 c0 -643 1 -905 2 -582 2 324 2 850 0 1170 -1 320 -2 56
-2 -588z"/>
<path d="M1065 2255 c-5 -2 -26 -6 -46 -9 -69 -12 -148 -94 -186 -194 -9 -26
-32 -72 -49 -102 -81 -138 -106 -290 -110 -660 -1 -156 1 -291 6 -300 4 -8 11
-39 14 -69 9 -77 52 -198 89 -254 71 -105 222 -157 392 -132 81 12 176 35 207
51 15 8 31 15 35 15 14 2 27 6 73 23 25 9 52 16 59 16 29 0 239 104 319 157
127 86 244 222 293 344 34 84 36 234 3 324 -46 128 -94 196 -251 358 -153 159
-229 218 -400 314 -147 82 -376 142 -448 118z m183 -41 c155 -33 349 -133 497
-259 76 -65 249 -243 295 -305 89 -119 138 -264 127 -378 -23 -257 -259 -482
-643 -613 -289 -99 -396 -120 -515 -100 -157 26 -230 103 -278 293 -60 235
-49 753 20 967 18 59 28 80 74 161 8 14 26 52 40 85 43 98 104 150 194 164 53
9 87 6 189 -15z"/>
<path d="M1022 2187 c-42 -16 -84 -56 -115 -112 -14 -25 -25 -45 -24 -45 1 0
20 7 42 15 22 8 54 14 72 15 18 0 48 11 68 24 103 70 290 49 498 -56 44 -21
81 -37 83 -35 5 5 -164 98 -247 136 -136 62 -298 86 -377 58z m168 -18 c36 -5
69 -14 73 -18 4 -4 -6 -6 -23 -3 -44 6 -150 -16 -181 -39 -30 -21 -119 -38
-119 -22 0 18 58 65 96 78 48 17 71 18 154 4z"/>
<path d="M1123 2078 c-45 -15 -41 -24 12 -31 104 -15 288 -97 425 -190 102
-70 251 -216 307 -300 64 -96 105 -206 107 -285 l1 -64 19 43 c88 202 -2 451
-222 614 -108 81 -302 179 -406 205 -85 21 -190 25 -243 8z m202 -24 c33 -8
67 -17 75 -19 119 -27 349 -163 450 -266 66 -67 142 -207 144 -265 0 -22 4
-41 7 -44 4 -3 4 -32 0 -65 l-6 -60 -28 76 c-66 179 -222 352 -455 504 -68 44
-261 134 -289 135 -7 0 -13 5 -13 10 0 15 47 12 115 -6z"/>
<path d="M948 2016 c-70 -25 -84 -40 -97 -103 -23 -115 -32 -201 -38 -383 -9
-284 18 -493 83 -625 27 -55 68 -104 50 -60 -51 122 -74 397 -57 664 13 219
40 360 85 454 17 37 27 67 22 67 -6 -1 -28 -7 -48 -14z m-2 -58 c-22 -53 -53
-173 -66 -258 -6 -41 -14 -190 -16 -330 -3 -140 -7 -256 -8 -258 -15 -15 -24
464 -12 598 9 88 27 200 37 227 8 20 68 67 76 59 2 -2 -3 -19 -11 -38z"/>
<path d="M1042 2017 c-21 -26 -60 -115 -75 -172 -34 -127 -42 -227 -41 -510 0
-297 8 -364 54 -487 27 -73 53 -83 205 -82 88 1 128 7 200 28 121 37 245 92
333 150 84 56 198 164 212 202 17 42 12 157 -10 226 -89 287 -476 589 -837
652 -19 3 -35 0 -41 -7z m156 -42 c72 -23 273 -118 304 -145 7 -6 42 -32 78
-59 222 -165 349 -373 337 -552 -5 -74 -4 -72 -83 -153 -143 -148 -452 -279
-661 -279 -144 0 -165 15 -196 143 -67 274 -40 832 50 1015 25 50 30 55 60 55
17 0 68 -11 111 -25z"/>
<path d="M787 1827 c-65 -207 -81 -692 -32 -932 21 -102 75 -217 118 -249 72
-54 208 -71 356 -44 l66 12 -75 8 c-93 10 -171 46 -208 97 -15 20 -49 56 -75
81 -122 111 -164 311 -154 727 3 126 10 254 17 286 15 75 8 82 -13 14z m-22
-612 c16 -199 68 -352 144 -420 38 -34 48 -44 109 -109 24 -25 49 -46 55 -46
7 0 21 -8 32 -16 19 -15 15 -16 -57 -11 -42 3 -92 13 -112 22 -118 56 -172
209 -183 515 -6 177 0 212 12 65z"/>
<path d="M2016 1615 c4 -11 15 -42 25 -70 38 -104 15 -283 -49 -372 -11 -15
-31 -56 -45 -91 -46 -113 -181 -272 -269 -318 -16 -8 -28 -18 -25 -20 3 -3 31
9 63 27 178 99 308 219 368 340 71 143 68 264 -10 419 -34 69 -73 125 -58 85z
m92 -341 c-5 -103 -57 -204 -155 -302 -41 -41 -77 -71 -81 -68 -3 4 -2 10 4
14 15 11 67 101 93 162 13 30 31 66 41 80 24 35 70 154 70 182 0 13 3 34 7 48
6 24 7 24 16 -10 5 -19 7 -67 5 -106z"/>
<path d="M1859 1014 c-80 -85 -292 -202 -454 -251 -75 -22 -110 -26 -215 -27
-69 -1 -134 3 -145 8 -18 8 -17 6 3 -17 55 -59 177 -85 314 -67 96 13 172 45
279 118 73 49 183 155 228 220 29 41 23 51 -10 16z m-144 -154 c-6 -10 -148
-104 -201 -133 -73 -40 -271 -63 -334 -39 -22 9 -20 10 25 16 43 5 132 20 185
31 44 9 174 60 240 94 79 41 95 47 85 31z"/>
</g>
</svg>
